M48
;Layer_Color=9474304
;FILE_FORMAT=4:3
METRIC,LZ
;TYPE=PLATED
T01F00S00C0.300
T03F00S00C0.700
T04F00S00C0.800
T05F00S00C2.900
%
T01
X004572Y002794
X004826
X00508
X005334
X005588
X005842
X006096
X00635
X006604
X006858
X007112
X007366
X00762
X007874
X007747Y003048
X007493
X007239
X006985
X006731
X006477
X006223
X005969
X005715
X005461
X005207
X004953
X004699
X004445
X007366Y003302
X00762
X007874
Y00381
X00762
X007366
X008128
X008255Y003556
X008509
X008763
X009017
X009271
X009525
X009652Y00381
X009906
X01016
X010414
X010668
X010922
X011176
X01143
X011684
X011811Y003556
X011557
X011303
X011049
X010795
X010541
X010287
X010033
X01016Y003302
X010414
X010668
X010922
X011176
X01143
X011684
X011811Y003048
X011557
X011303
X011049
X010795
X010541
X010287
X010033
X009779
X009525
X009271
X009017
X008763
X008509
X008255
X008001
X008128Y003302
X008382
X008636
X00889
X009144
X009398
X009652
X009906
Y002794
X01016
X010414
X010668
X010922
X011176
X01143
X011684
X009652
X009398
X009144
X00889
X008636
X008382
X008128
X008636Y00381
X00889
X009144
X009398
X011938
X012192
X012446
X0127
X012827Y003556
X012573
X012319
X012065
X012192Y003302
X012446
X0127
X012827Y003048
X012573
X012319
X012065
X012192Y002794
X012446
X0127
X011938
Y003302
X012065Y004064
X012319
X012573
X012827
X0127Y004318
X012446
X012192
X011938
X012065Y004572
X012319
X012573
X0127Y004826
X012192
X011938
Y005588
Y005842
X012192
X012446
X0127
Y0054864
X0125984
X0122936
X012319Y006096
X012573
X012827
X012065
X011938Y00635
X012065Y006604
X012319
X012573
Y007112
X012827
X012319
X012446Y007366
X012192
X012319Y00762
X012065
X012192Y007874
X012446
X012192Y006858
X011938
X011557Y007112
X0113792Y0070104
X01143Y0075184
X0113792Y00762
X01143Y0077216
X0113284
X0113792Y0078232
X0113284Y0079248
X0116332Y0077216
X011811Y00762
X011684Y007366
Y00635
X011557Y006096
X0118872Y0056896
Y0054864
X0112289Y005598
X0110236Y0053848
X0108712Y0054864
X0108204Y005588
X010668Y0054864
X0105664
X0104648
X0101092
X0100584Y005588
X0099568
X009906Y0054864
X0097536Y0053848
X009398Y005334
X0089408Y0054864
X0088392
X0087376
X00889Y005588
X0081788
X0080772
X008128Y0056896
X0080264
Y0054864
X008128
X0082296
X0080772Y0053848
X0079756
Y0051816
X008128Y004826
X008255Y004572
X008509
X008763
X008636Y004826
Y004318
X008382
X008128
X008255Y004064
X008001
X008763
X009017
X009271
X009525
X009779
X010033
X01016Y004318
X010414
X010668
X010922
X011176
X01143
X011684
X011811Y004572
X011557
X011303
X01143Y004826
X011176
X011303Y00508
Y004064
X011557
X011811
X011049
X010795
X010541
Y004572
X010287
X010033
X01016Y004826
X010414
X009906
X009652
X009525Y004572
X009652Y004318
X009906
X009398
X009144
X0091842Y0061288
X00889Y00635
X008763Y006604
X008509
X008255
X008001
X008128Y006858
X008382
X008509Y007112
X008255
X008382Y007366
X008255Y00762
X008001
X008128Y007874
X008382
X008636
X00889
X009398Y0079248
X0094488Y0078232
X0094996Y0077216
X009398
X0094488Y00762
X0094996Y0075184
X009652Y007366
X009779Y007112
X009906Y006858
X010033Y006604
X010287
X010541
Y007112
X010795
X010287
X010414Y007366
X010287Y00762
X010414Y007874
X0097028Y0077216
X0094488Y0070104
X009652Y00635
X009906
X008382
X008128
X007874
X00762
X0075184Y0070104
X0074168
X0073152
X007747Y007112
X00762Y007366
Y00762
X0075184
X0074168
X0074676Y0077216
X0075692
X0076708
X0075184Y0078232
X0074168
X0074676Y0079248
X006858Y0058928
X0067564
X0066548
X0067056Y0059944
X006604
X0066548Y006096
X0067056Y0057912
X0068072
X006858Y0056896
X0067564
X0066548
X0067056Y005588
X0068072
X006858Y0054864
X0067564
X006604Y005588
Y0057912
X0069998Y005598
X0077724Y0053848
X007874
X0079248Y0054864
Y0052832
X0078232
X007747Y00508
X007874Y004826
X00762
X007493Y004572
X007239
X007366Y004318
X00762
X007874
X007747Y004064
X007493
X007239
X0062992Y0049784
X0061976
X006096
X0059944
X0058928
X0059436Y00508
X0060452
X0061468
X0062484
X0061976Y0051816
X006096
X0059944
X0058928
X0057912
X0056896
X0057404Y0052832
X005842
X0059436
X0060452
X0061468
X0062484
X005842Y00508
X0057404
X0056388Y0052832
X005588Y0053848
Y008382
X005842
X006096
X00635
X006477Y008636
X006223
X005969
X005715
X005842Y00889
X006096
X00635
X006604
X006731Y009144
X006985
X007239
X007493
X007747
X007874Y009398
X00762
X007366
X007112
X006858
X006604
X00635
X006096
X005842
X005969Y009144
X006223
X006477
X005715
X005461
X005207
X004953
X004699
X004445
X004572Y009398
X004826
X00508
X005334
Y00889
X00508
X004826
X004572
X004318
Y009398
X005588Y00889
X0073188Y0084098
X0074676Y008128
X0075692
X0076708
X0077724
X0075184Y0080264
X0074168
X0076246Y0085952
X008001Y008636
X008255
X008509
X008636Y00889
X00889
X009017Y009144
X009271
X009525
X009779
X010033
X010287
X010541
X010795
X011049
X011303
X011557
X011811
X011684Y009398
X01143
X011176
X010922
X010668
X010414
X01016
X009906
X009652
X009398
X009144
X00889
X008636
X008382
X008128
X008255Y009144
X008509
X008763
X008382Y00889
X008128
X008001Y009144
X008128Y008382
X008382
X008636
X00889
X0092899Y008405
X009398Y008128
X0094996
X0094488Y0080264
X0097028Y008128
X010033
X010287
X010541
X010795
Y008636
X010541
X010287
X010033
X01016Y00889
X010414
X010668
X010414Y008382
X0112035Y008405
X0113284Y008128
X01143
X0113792Y0080264
X0116332Y008128
X0115185Y0085901
X011811Y008636
X0095804Y0085952
X008509Y008128
X008255
X012065
X012319
X012573
X012827
Y008636
X012573
X012319
X012065
X011938Y008382
X012192
X012446
Y00889
X012192
X012319Y009144
X012573
X012827
X0127Y009398
X012446
X012192
X011938
X012065Y009144
T03
X012605Y00681
X012855
Y00749
X012605
X010835
X010585
Y00681
X010835
X00891
X00866
Y00749
X00891
X0051983Y006705
Y006505
Y006155
Y005955
T04
X004746Y004014
X005
Y004268
X004746
X005254
Y004014
X0047483Y005941
Y006195
Y006449
Y006703
T05
X01246Y005135
X01174
X01076
X01004
X00906
X00834
X00736
X00664
M30
