G04*
G04 #@! TF.GenerationSoftware,Altium Limited,Altium Designer,24.1.2 (44)*
G04*
G04 Layer_Color=255*
%FSTAX44Y44*%
%MOMM*%
G71*
G04*
G04 #@! TF.SameCoordinates,12363CD6-4FB3-4025-AA91-2C02E6BC70D7*
G04*
G04*
G04 #@! TF.FilePolarity,Positive*
G04*
G01*
G75*
%ADD15O,1.2000X0.6000*%
G04:AMPARAMS|DCode=16|XSize=1.2mm|YSize=0.6mm|CornerRadius=0.075mm|HoleSize=0mm|Usage=FLASHONLY|Rotation=0.000|XOffset=0mm|YOffset=0mm|HoleType=Round|Shape=RoundedRectangle|*
%AMROUNDEDRECTD16*
21,1,1.2000,0.4500,0,0,0.0*
21,1,1.0500,0.6000,0,0,0.0*
1,1,0.1500,0.5250,-0.2250*
1,1,0.1500,-0.5250,-0.2250*
1,1,0.1500,-0.5250,0.2250*
1,1,0.1500,0.5250,0.2250*
%
%ADD16ROUNDEDRECTD16*%
G04:AMPARAMS|DCode=17|XSize=1mm|YSize=3.2mm|CornerRadius=0.25mm|HoleSize=0mm|Usage=FLASHONLY|Rotation=90.000|XOffset=0mm|YOffset=0mm|HoleType=Round|Shape=RoundedRectangle|*
%AMROUNDEDRECTD17*
21,1,1.0000,2.7000,0,0,90.0*
21,1,0.5000,3.2000,0,0,90.0*
1,1,0.5000,1.3500,0.2500*
1,1,0.5000,1.3500,-0.2500*
1,1,0.5000,-1.3500,-0.2500*
1,1,0.5000,-1.3500,0.2500*
%
%ADD17ROUNDEDRECTD17*%
G04:AMPARAMS|DCode=18|XSize=3.5mm|YSize=4mm|CornerRadius=0.875mm|HoleSize=0mm|Usage=FLASHONLY|Rotation=90.000|XOffset=0mm|YOffset=0mm|HoleType=Round|Shape=RoundedRectangle|*
%AMROUNDEDRECTD18*
21,1,3.5000,2.2500,0,0,90.0*
21,1,1.7500,4.0000,0,0,90.0*
1,1,1.7500,1.1250,0.8750*
1,1,1.7500,1.1250,-0.8750*
1,1,1.7500,-1.1250,-0.8750*
1,1,1.7500,-1.1250,0.8750*
%
%ADD18ROUNDEDRECTD18*%
G04:AMPARAMS|DCode=19|XSize=2.4mm|YSize=3.3mm|CornerRadius=0.6mm|HoleSize=0mm|Usage=FLASHONLY|Rotation=0.000|XOffset=0mm|YOffset=0mm|HoleType=Round|Shape=RoundedRectangle|*
%AMROUNDEDRECTD19*
21,1,2.4000,2.1000,0,0,0.0*
21,1,1.2000,3.3000,0,0,0.0*
1,1,1.2000,0.6000,-1.0500*
1,1,1.2000,-0.6000,-1.0500*
1,1,1.2000,-0.6000,1.0500*
1,1,1.2000,0.6000,1.0500*
%
%ADD19ROUNDEDRECTD19*%
G04:AMPARAMS|DCode=20|XSize=2.6mm|YSize=3.3mm|CornerRadius=0.65mm|HoleSize=0mm|Usage=FLASHONLY|Rotation=0.000|XOffset=0mm|YOffset=0mm|HoleType=Round|Shape=RoundedRectangle|*
%AMROUNDEDRECTD20*
21,1,2.6000,2.0000,0,0,0.0*
21,1,1.3000,3.3000,0,0,0.0*
1,1,1.3000,0.6500,-1.0000*
1,1,1.3000,-0.6500,-1.0000*
1,1,1.3000,-0.6500,1.0000*
1,1,1.3000,0.6500,1.0000*
%
%ADD20ROUNDEDRECTD20*%
G04:AMPARAMS|DCode=21|XSize=0.76mm|YSize=0.51mm|CornerRadius=0.1275mm|HoleSize=0mm|Usage=FLASHONLY|Rotation=180.000|XOffset=0mm|YOffset=0mm|HoleType=Round|Shape=RoundedRectangle|*
%AMROUNDEDRECTD21*
21,1,0.7600,0.2550,0,0,180.0*
21,1,0.5050,0.5100,0,0,180.0*
1,1,0.2550,-0.2525,0.1275*
1,1,0.2550,0.2525,0.1275*
1,1,0.2550,0.2525,-0.1275*
1,1,0.2550,-0.2525,-0.1275*
%
%ADD21ROUNDEDRECTD21*%
G04:AMPARAMS|DCode=22|XSize=0.55mm|YSize=0.82mm|CornerRadius=0.1375mm|HoleSize=0mm|Usage=FLASHONLY|Rotation=270.000|XOffset=0mm|YOffset=0mm|HoleType=Round|Shape=RoundedRectangle|*
%AMROUNDEDRECTD22*
21,1,0.5500,0.5450,0,0,270.0*
21,1,0.2750,0.8200,0,0,270.0*
1,1,0.2750,-0.2725,-0.1375*
1,1,0.2750,-0.2725,0.1375*
1,1,0.2750,0.2725,0.1375*
1,1,0.2750,0.2725,-0.1375*
%
%ADD22ROUNDEDRECTD22*%
G04:AMPARAMS|DCode=23|XSize=0.9mm|YSize=0.8mm|CornerRadius=0.1mm|HoleSize=0mm|Usage=FLASHONLY|Rotation=270.000|XOffset=0mm|YOffset=0mm|HoleType=Round|Shape=RoundedRectangle|*
%AMROUNDEDRECTD23*
21,1,0.9000,0.6000,0,0,270.0*
21,1,0.7000,0.8000,0,0,270.0*
1,1,0.2000,-0.3000,-0.3500*
1,1,0.2000,-0.3000,0.3500*
1,1,0.2000,0.3000,0.3500*
1,1,0.2000,0.3000,-0.3500*
%
%ADD23ROUNDEDRECTD23*%
G04:AMPARAMS|DCode=24|XSize=0.55mm|YSize=0.82mm|CornerRadius=0.1375mm|HoleSize=0mm|Usage=FLASHONLY|Rotation=0.000|XOffset=0mm|YOffset=0mm|HoleType=Round|Shape=RoundedRectangle|*
%AMROUNDEDRECTD24*
21,1,0.5500,0.5450,0,0,0.0*
21,1,0.2750,0.8200,0,0,0.0*
1,1,0.2750,0.1375,-0.2725*
1,1,0.2750,-0.1375,-0.2725*
1,1,0.2750,-0.1375,0.2725*
1,1,0.2750,0.1375,0.2725*
%
%ADD24ROUNDEDRECTD24*%
%ADD25R,0.8000X2.8000*%
%ADD26R,8.7000X8.0000*%
%ADD27O,1.3900X2.0900*%
G04:AMPARAMS|DCode=28|XSize=2.09mm|YSize=1.39mm|CornerRadius=0.1737mm|HoleSize=0mm|Usage=FLASHONLY|Rotation=270.000|XOffset=0mm|YOffset=0mm|HoleType=Round|Shape=RoundedRectangle|*
%AMROUNDEDRECTD28*
21,1,2.0900,1.0425,0,0,270.0*
21,1,1.7425,1.3900,0,0,270.0*
1,1,0.3475,-0.5213,-0.8713*
1,1,0.3475,-0.5213,0.8713*
1,1,0.3475,0.5213,0.8713*
1,1,0.3475,0.5213,-0.8713*
%
%ADD28ROUNDEDRECTD28*%
G04:AMPARAMS|DCode=29|XSize=0.9mm|YSize=0.8mm|CornerRadius=0.1mm|HoleSize=0mm|Usage=FLASHONLY|Rotation=0.000|XOffset=0mm|YOffset=0mm|HoleType=Round|Shape=RoundedRectangle|*
%AMROUNDEDRECTD29*
21,1,0.9000,0.6000,0,0,0.0*
21,1,0.7000,0.8000,0,0,0.0*
1,1,0.2000,0.3500,-0.3000*
1,1,0.2000,-0.3500,-0.3000*
1,1,0.2000,-0.3500,0.3000*
1,1,0.2000,0.3500,0.3000*
%
%ADD29ROUNDEDRECTD29*%
%ADD54R,1.0000X1.0000*%
%ADD55R,0.1000X0.1000*%
G04:AMPARAMS|DCode=60|XSize=1.4mm|YSize=1.8mm|CornerRadius=0.35mm|HoleSize=0mm|Usage=FLASHONLY|Rotation=0.000|XOffset=0mm|YOffset=0mm|HoleType=Round|Shape=RoundedRectangle|*
%AMROUNDEDRECTD60*
21,1,1.4000,1.1000,0,0,0.0*
21,1,0.7000,1.8000,0,0,0.0*
1,1,0.7000,0.3500,-0.5500*
1,1,0.7000,-0.3500,-0.5500*
1,1,0.7000,-0.3500,0.5500*
1,1,0.7000,0.3500,0.5500*
%
%ADD60ROUNDEDRECTD60*%
%ADD61O,1.4000X1.8000*%
%ADD62C,1.6000*%
%ADD63O,1.6000X1.2000*%
%ADD64O,1.4000X1.6000*%
G04:AMPARAMS|DCode=65|XSize=1.4mm|YSize=1.6mm|CornerRadius=0.35mm|HoleSize=0mm|Usage=FLASHONLY|Rotation=0.000|XOffset=0mm|YOffset=0mm|HoleType=Round|Shape=RoundedRectangle|*
%AMROUNDEDRECTD65*
21,1,1.4000,0.9000,0,0,0.0*
21,1,0.7000,1.6000,0,0,0.0*
1,1,0.7000,0.3500,-0.4500*
1,1,0.7000,-0.3500,-0.4500*
1,1,0.7000,-0.3500,0.4500*
1,1,0.7000,0.3500,0.4500*
%
%ADD65ROUNDEDRECTD65*%
%ADD66O,1.2000X2.3000*%
%ADD67C,5.0000*%
G04:AMPARAMS|DCode=68|XSize=1.2mm|YSize=1.6mm|CornerRadius=0.3mm|HoleSize=0mm|Usage=FLASHONLY|Rotation=270.000|XOffset=0mm|YOffset=0mm|HoleType=Round|Shape=RoundedRectangle|*
%AMROUNDEDRECTD68*
21,1,1.2000,1.0000,0,0,270.0*
21,1,0.6000,1.6000,0,0,270.0*
1,1,0.6000,-0.5000,-0.3000*
1,1,0.6000,-0.5000,0.3000*
1,1,0.6000,0.5000,0.3000*
1,1,0.6000,0.5000,-0.3000*
%
%ADD68ROUNDEDRECTD68*%
D15*
X01165Y008595D02*
D03*
Y008405D02*
D03*
Y0085D02*
D03*
X01137Y008405D02*
D03*
Y0085D02*
D03*
X00971Y008595D02*
D03*
Y008405D02*
D03*
Y0085D02*
D03*
X00943Y008405D02*
D03*
Y0085D02*
D03*
X00745D02*
D03*
Y008405D02*
D03*
X00773Y0085D02*
D03*
Y008405D02*
D03*
Y008595D02*
D03*
D16*
X01137D02*
D03*
X00943D02*
D03*
X00745D02*
D03*
D17*
X00866Y00631D02*
D03*
Y00571D02*
D03*
X010585D02*
D03*
Y00631D02*
D03*
X012605Y00571D02*
D03*
Y00631D02*
D03*
D18*
X00768Y006685D02*
D03*
Y005735D02*
D03*
X01158D02*
D03*
Y006685D02*
D03*
X00965Y005735D02*
D03*
Y006685D02*
D03*
D19*
X00803Y00731D02*
D03*
X01193D02*
D03*
X01D02*
D03*
D20*
X00733D02*
D03*
X01123D02*
D03*
X0093D02*
D03*
D21*
X007954Y0081505D02*
D03*
Y0077695D02*
D03*
Y0078965D02*
D03*
Y0080235D02*
D03*
X009924D02*
D03*
Y0078965D02*
D03*
Y0077695D02*
D03*
Y0081505D02*
D03*
X011854D02*
D03*
Y0077695D02*
D03*
Y0078965D02*
D03*
Y0080235D02*
D03*
D22*
X00506686Y00875404D02*
D03*
Y00860904D02*
D03*
X011854Y0084425D02*
D03*
Y0082975D02*
D03*
X009924Y0084525D02*
D03*
Y0083075D02*
D03*
X007954Y0084525D02*
D03*
Y0083075D02*
D03*
D23*
X00505332Y0078635D02*
D03*
X00514832Y0076635D02*
D03*
X00524332Y0078635D02*
D03*
D24*
X00507582Y007995D02*
D03*
X0111225Y008595D02*
D03*
X0109775D02*
D03*
X00522082Y007995D02*
D03*
X00507582Y008125D02*
D03*
X00522082D02*
D03*
X00515582Y007105D02*
D03*
X00530082D02*
D03*
X00462032Y00836912D02*
D03*
X00476532D02*
D03*
X00530082Y006975D02*
D03*
X00515582D02*
D03*
X00489582D02*
D03*
X00504082D02*
D03*
X0092225Y00825D02*
D03*
X0090775D02*
D03*
X0092225Y008595D02*
D03*
X0090775D02*
D03*
X0092225Y008405D02*
D03*
X0090775D02*
D03*
X0111225Y008405D02*
D03*
X0109775D02*
D03*
X0111225Y00824D02*
D03*
X0109775D02*
D03*
X0111225Y00811D02*
D03*
X0109775D02*
D03*
X0072425Y008595D02*
D03*
X0070975D02*
D03*
X0072425Y008405D02*
D03*
X0070975D02*
D03*
X0072425Y00828D02*
D03*
X0070975D02*
D03*
X0072425Y00815D02*
D03*
X0070975D02*
D03*
X0090775Y00812D02*
D03*
X0092225D02*
D03*
D25*
X00610832Y007075D02*
D03*
X00562832Y00708D02*
D03*
X00598832Y006685D02*
D03*
X00646832Y00668D02*
D03*
D26*
X00604832Y00787D02*
D03*
Y00589D02*
D03*
D27*
X00476532Y007221D02*
D03*
X00451132D02*
D03*
Y008129D02*
D03*
D28*
X00476532D02*
D03*
D29*
X00532832Y007345D02*
D03*
X00512832Y00725D02*
D03*
Y00744D02*
D03*
D54*
X0076775Y00796D02*
D03*
X0096475D02*
D03*
X0115775D02*
D03*
D55*
X00604832Y007605D02*
D03*
Y0072D02*
D03*
Y006155D02*
D03*
Y00656D02*
D03*
D60*
X00866Y00749D02*
D03*
Y00681D02*
D03*
X012605D02*
D03*
X010585D02*
D03*
X012605Y00749D02*
D03*
X010585D02*
D03*
D61*
X00891D02*
D03*
Y00681D02*
D03*
X012855D02*
D03*
X010835D02*
D03*
X012855Y00749D02*
D03*
X010835D02*
D03*
D62*
X00474832Y005941D02*
D03*
Y006703D02*
D03*
Y006449D02*
D03*
Y006195D02*
D03*
D63*
X00519832Y005955D02*
D03*
Y006505D02*
D03*
D64*
X005Y004014D02*
D03*
Y004268D02*
D03*
X005254Y004014D02*
D03*
X004746D02*
D03*
Y004268D02*
D03*
D65*
X005254D02*
D03*
D66*
X006325Y004535D02*
D03*
X007675D02*
D03*
X012775D02*
D03*
X011425D02*
D03*
X011075D02*
D03*
X009725D02*
D03*
X009375D02*
D03*
X008025D02*
D03*
D67*
X00664Y005135D02*
D03*
X00736D02*
D03*
X01246D02*
D03*
X01174D02*
D03*
X01076D02*
D03*
X01004D02*
D03*
X00906D02*
D03*
X00834D02*
D03*
D68*
X00519832Y006705D02*
D03*
Y006155D02*
D03*
M02*
