G04*
G04 #@! TF.GenerationSoftware,Altium Limited,Altium Designer,24.1.2 (44)*
G04*
G04 Layer_Color=65535*
%FSTAX44Y44*%
%MOMM*%
G71*
G04*
G04 #@! TF.SameCoordinates,766F5EE8-76D7-4FD5-9DA9-035E16690E08*
G04*
G04*
G04 #@! TF.FilePolarity,Positive*
G04*
G01*
G75*
%ADD10C,0.2000*%
%ADD11C,0.3000*%
%ADD12C,0.5000*%
%ADD13C,0.2540*%
%ADD14C,0.1200*%
G36*
X00537684Y00588D02*
X00501978Y00588D01*
X00503724Y00586219D01*
X0050785Y00583417D01*
X00512448Y00581486D01*
X00517337Y005805D01*
X00519831Y00580501D01*
X00522325Y005805D01*
X00527214Y00581486D01*
X00531813Y00583417D01*
X00535939Y00586219D01*
X00537684Y00588D01*
X00537684Y00588D01*
D02*
G37*
G36*
Y00643D02*
X00501978Y00643D01*
X00503724Y00641219D01*
X0050785Y00638417D01*
X00512448Y00636486D01*
X00517337Y006355D01*
X00519831Y00635501D01*
X00522325Y006355D01*
X00527214Y00636486D01*
X00531813Y00638417D01*
X00535939Y00641219D01*
X00537684Y00643D01*
X00537684Y00643D01*
D02*
G37*
G36*
X008995Y00704478D02*
X008995Y00657522D01*
X00900735Y00658626D01*
X00902961Y00661083D01*
X00904915Y0066376D01*
X00906579Y00666627D01*
X00907932Y00669653D01*
X0090896Y00672804D01*
X00909651Y00676046D01*
X00909999Y00679342D01*
X00909999Y00681D01*
X00909999Y00682657D01*
X00909652Y00685953D01*
X0090896Y00689195D01*
X00907932Y00692346D01*
X00906579Y00695372D01*
X00904915Y00698239D01*
X0090296Y00700916D01*
X00900735Y00703373D01*
X008995Y00704478D01*
X008995D01*
D02*
G37*
G36*
Y00772478D02*
X008995Y00725521D01*
X00900735Y00726626D01*
X00902961Y00729083D01*
X00904915Y0073176D01*
X00906579Y00734627D01*
X00907932Y00737653D01*
X0090896Y00740804D01*
X00909651Y00744046D01*
X00909999Y00747342D01*
X00909999Y00749D01*
X00909999Y00750657D01*
X00909652Y00753953D01*
X0090896Y00757195D01*
X00907932Y00760346D01*
X00906579Y00763372D01*
X00904915Y00766239D01*
X0090296Y00768916D01*
X00900735Y00771373D01*
X008995Y00772478D01*
X008995D01*
D02*
G37*
G36*
X01092Y00704478D02*
X01092Y00657522D01*
X01093235Y00658626D01*
X01095461Y00661083D01*
X01097415Y0066376D01*
X01099079Y00666627D01*
X01100432Y00669653D01*
X0110146Y00672804D01*
X01102152Y00676046D01*
X01102499Y00679342D01*
X01102499Y00681D01*
X01102499Y00682657D01*
X01102152Y00685953D01*
X0110146Y00689195D01*
X01100432Y00692346D01*
X01099079Y00695372D01*
X01097415Y00698239D01*
X0109546Y00700916D01*
X01093235Y00703373D01*
X01092Y00704478D01*
X01092D01*
D02*
G37*
G36*
Y00772478D02*
X01092Y00725521D01*
X01093235Y00726626D01*
X01095461Y00729083D01*
X01097415Y0073176D01*
X01099079Y00734627D01*
X01100432Y00737653D01*
X0110146Y00740804D01*
X01102152Y00744046D01*
X01102499Y00747342D01*
X01102499Y00749D01*
X01102499Y00750657D01*
X01102152Y00753953D01*
X0110146Y00757195D01*
X01100432Y00760346D01*
X01099079Y00763372D01*
X01097415Y00766239D01*
X0109546Y00768916D01*
X01093235Y00771373D01*
X01092Y00772478D01*
X01092D01*
D02*
G37*
G36*
X01294Y00704478D02*
X01294Y00657522D01*
X01295235Y00658626D01*
X0129746Y00661083D01*
X01299415Y0066376D01*
X01301079Y00666627D01*
X01302432Y00669653D01*
X0130346Y00672804D01*
X01304152Y00676046D01*
X01304499Y00679342D01*
X01304499Y00681D01*
X01304499Y00682657D01*
X01304152Y00685953D01*
X0130346Y00689195D01*
X01302432Y00692346D01*
X01301079Y00695372D01*
X01299415Y00698239D01*
X0129746Y00700916D01*
X01295235Y00703373D01*
X01294Y00704478D01*
X01294D01*
D02*
G37*
G36*
Y00772478D02*
X01294Y00725521D01*
X01295235Y00726626D01*
X0129746Y00729083D01*
X01299415Y0073176D01*
X01301079Y00734627D01*
X01302432Y00737653D01*
X0130346Y00740804D01*
X01304152Y00744046D01*
X01304499Y00747342D01*
X01304499Y00749D01*
X01304499Y00750657D01*
X01304152Y00753953D01*
X0130346Y00757195D01*
X01302432Y00760346D01*
X01301079Y00763372D01*
X01299415Y00766239D01*
X0129746Y00768916D01*
X01295235Y00771373D01*
X01294Y00772478D01*
X01294D01*
D02*
G37*
G36*
X00445681Y00587786D02*
X00444292D01*
X0043883Y00597766D01*
Y00587786D01*
X00437515D01*
Y00600433D01*
X00438941D01*
X00444366Y00590489D01*
Y00600433D01*
X00445681D01*
Y00587786D01*
D02*
G37*
G36*
X00452217Y00600618D02*
X00452347D01*
X00452495Y00600599D01*
X0045268Y00600581D01*
X00452866Y00600544D01*
X00453292Y00600451D01*
X00453736Y00600322D01*
X00454199Y00600136D01*
X00454662Y00599896D01*
X0045468Y00599877D01*
X00454717Y00599859D01*
X00454773Y00599822D01*
X00454865Y00599748D01*
X00455069Y00599581D01*
X00455347Y0059934D01*
X00455643Y00599025D01*
X00455958Y00598637D01*
X00456273Y00598192D01*
X0045655Y00597674D01*
Y00597655D01*
X00456587Y005976D01*
X00456606Y00597525D01*
X00456661Y00597414D01*
X00456717Y00597266D01*
X00456773Y005971D01*
X00456828Y00596914D01*
X00456884Y00596692D01*
X00456958Y00596451D01*
X00457013Y00596174D01*
X00457069Y00595896D01*
X00457124Y00595581D01*
X0045718Y00595248D01*
X00457198Y00594915D01*
X00457235Y00594174D01*
Y00594156D01*
Y00594081D01*
Y0059397D01*
X00457217Y00593822D01*
Y00593637D01*
X00457198Y00593433D01*
X0045718Y00593193D01*
X00457143Y00592952D01*
X00457069Y00592378D01*
X00456939Y00591767D01*
X00456773Y00591156D01*
X0045655Y00590563D01*
Y00590545D01*
X00456513Y00590489D01*
X00456476Y00590415D01*
X00456421Y00590304D01*
X00456347Y00590193D01*
X00456273Y00590045D01*
X0045605Y00589711D01*
X00455791Y00589341D01*
X00455476Y00588952D01*
X00455125Y00588601D01*
X00454921Y00588452D01*
X00454717Y00588304D01*
X00454699D01*
X00454662Y00588267D01*
X00454606Y0058823D01*
X00454514Y00588193D01*
X00454403Y00588138D01*
X00454273Y00588064D01*
X00454125Y00588008D01*
X00453958Y00587934D01*
X00453569Y00587804D01*
X00453106Y00587675D01*
X00452606Y00587601D01*
X00452051Y00587564D01*
X00451866D01*
X00451643Y00587582D01*
X00451366Y00587619D01*
X00451051Y00587675D01*
X00450718Y00587749D01*
X00450384Y00587841D01*
X00450051Y0058799D01*
X00450033D01*
X00450014Y00588008D01*
X00449903Y00588064D01*
X00449755Y00588156D01*
X00449551Y00588304D01*
X00449329Y00588471D01*
X00449088Y00588675D01*
X00448866Y00588915D01*
X00448644Y00589193D01*
X00448625Y0058923D01*
X00448551Y00589341D01*
X00448459Y00589508D01*
X00448329Y00589748D01*
X00448199Y00590063D01*
X00448051Y00590415D01*
X00447922Y00590841D01*
X00447811Y00591322D01*
X00449051Y0059173D01*
Y00591711D01*
X0044907Y00591674D01*
Y00591637D01*
X00449088Y00591563D01*
X00449162Y00591359D01*
X00449236Y00591137D01*
X00449329Y00590878D01*
X0044944Y00590619D01*
X00449551Y0059036D01*
X00449699Y00590137D01*
X00449718Y00590119D01*
X00449773Y00590045D01*
X00449847Y00589952D01*
X00449958Y00589823D01*
X00450107Y00589693D01*
X00450273Y00589563D01*
X00450477Y00589415D01*
X00450699Y00589304D01*
X00450718Y00589286D01*
X0045081Y00589249D01*
X0045094Y00589212D01*
X00451106Y00589137D01*
X0045131Y00589082D01*
X00451551Y00589045D01*
X0045181Y00589008D01*
X00452088Y00588989D01*
X00452273D01*
X00452495Y00589026D01*
X00452755Y00589063D01*
X00453051Y00589119D01*
X00453384Y0058923D01*
X00453717Y0058936D01*
X00454032Y00589545D01*
X00454069Y00589563D01*
X00454162Y00589656D01*
X0045431Y00589786D01*
X00454495Y00589971D01*
X00454717Y00590211D01*
X00454921Y00590489D01*
X00455143Y00590841D01*
X00455347Y00591248D01*
Y00591267D01*
X00455365Y00591304D01*
X00455384Y00591359D01*
X00455421Y00591452D01*
X00455458Y00591563D01*
X00455495Y00591693D01*
X0045555Y00591859D01*
X00455588Y00592026D01*
X00455625Y0059223D01*
X0045568Y00592433D01*
X00455754Y00592915D01*
X0045581Y0059347D01*
X00455828Y00594063D01*
Y005941D01*
Y00594174D01*
Y00594304D01*
X0045581Y0059447D01*
X00455791Y00594692D01*
X00455773Y00594933D01*
X00455736Y00595192D01*
X00455699Y00595489D01*
X00455569Y005961D01*
X00455476Y00596414D01*
X00455384Y00596729D01*
X00455254Y00597044D01*
X00455125Y0059734D01*
X00454958Y005976D01*
X00454773Y00597859D01*
X00454754Y00597877D01*
X00454717Y00597914D01*
X00454662Y0059797D01*
X00454588Y00598063D01*
X00454477Y00598155D01*
X00454347Y00598248D01*
X00454199Y00598377D01*
X00454032Y00598488D01*
X00453847Y005986D01*
X00453643Y00598711D01*
X00453403Y00598822D01*
X00453162Y00598914D01*
X00452903Y00599007D01*
X00452625Y00599062D01*
X00452329Y00599099D01*
X00452014Y00599118D01*
X00451866D01*
X00451718Y00599099D01*
X00451495Y00599062D01*
X00451255Y00599025D01*
X00450977Y0059897D01*
X00450681Y00598877D01*
X00450366Y00598748D01*
X00450347D01*
X00450329Y00598729D01*
X00450218Y00598674D01*
X0045007Y005986D01*
X00449866Y00598488D01*
X00449662Y00598359D01*
X00449422Y00598192D01*
X00449199Y00598007D01*
X00448996Y00597822D01*
Y0059547D01*
X00452032D01*
Y0059397D01*
X00447644D01*
Y00598655D01*
X00447662Y00598674D01*
X00447681Y00598692D01*
X00447737Y00598748D01*
X00447811Y00598822D01*
X00448014Y00598988D01*
X00448292Y00599211D01*
X00448607Y00599451D01*
X00448959Y00599711D01*
X00449329Y00599951D01*
X00449736Y00600155D01*
X00449755D01*
X00449792Y00600173D01*
X00449847Y00600192D01*
X00449921Y00600229D01*
X00450014Y00600266D01*
X00450144Y00600303D01*
X00450421Y00600396D01*
X00450755Y00600488D01*
X00451125Y00600562D01*
X00451532Y00600618D01*
X00451958Y00600636D01*
X00452106D01*
X00452217Y00600618D01*
D02*
G37*
G36*
X00435201Y00587786D02*
X00431294D01*
X00431164Y00587804D01*
X00430868Y00587823D01*
X00430553Y00587841D01*
X0043022Y00587878D01*
X00429887Y00587952D01*
X00429609Y00588027D01*
X0042959D01*
X00429572Y00588045D01*
X00429461Y00588082D01*
X00429294Y00588156D01*
X00429072Y00588267D01*
X00428831Y00588434D01*
X00428572Y00588619D01*
X00428313Y0058886D01*
X00428053Y00589137D01*
X00428016Y00589174D01*
X00427942Y00589286D01*
X00427831Y00589452D01*
X00427664Y00589693D01*
X00427498Y00589971D01*
X00427331Y00590322D01*
X00427165Y00590711D01*
X00427016Y00591156D01*
Y00591174D01*
X00426998Y00591211D01*
X00426979Y00591285D01*
X00426961Y00591378D01*
X00426924Y00591489D01*
X00426887Y00591637D01*
X0042685Y00591785D01*
X00426813Y0059197D01*
X00426794Y00592174D01*
X00426757Y00592396D01*
X00426683Y00592896D01*
X00426646Y00593433D01*
X00426628Y00594044D01*
Y00594063D01*
Y00594137D01*
Y00594248D01*
Y00594396D01*
X00426646Y00594581D01*
X00426665Y00594804D01*
X00426683Y00595044D01*
X00426702Y00595303D01*
X00426776Y00595877D01*
X00426887Y00596489D01*
X00427053Y005971D01*
X00427257Y00597692D01*
Y00597711D01*
X00427294Y00597766D01*
X00427313Y0059784D01*
X00427368Y00597933D01*
X00427442Y00598063D01*
X00427516Y00598192D01*
X00427701Y00598525D01*
X00427924Y00598877D01*
X00428201Y00599229D01*
X00428535Y00599544D01*
X00428701Y00599692D01*
X00428887Y00599822D01*
X00428905D01*
X00428924Y0059984D01*
X00428979Y00599877D01*
X00429072Y00599914D01*
X00429164Y0059997D01*
X00429275Y00600007D01*
X00429424Y00600062D01*
X00429572Y00600118D01*
X00429757Y00600192D01*
X00429942Y00600247D01*
X00430386Y0060034D01*
X00430886Y00600414D01*
X0043146Y00600433D01*
X00435201D01*
Y00587786D01*
D02*
G37*
G36*
X00444015Y00672424D02*
X00446829D01*
Y0067098D01*
X00444015D01*
Y00667536D01*
X00442811D01*
Y0067098D01*
X00439997D01*
Y00672424D01*
X00442811D01*
Y00675887D01*
X00444015D01*
Y00672424D01*
D02*
G37*
G36*
X00457235Y00665277D02*
X00455736D01*
X00453032Y00674479D01*
Y00674498D01*
X00453014Y00674535D01*
X00452995Y0067459D01*
X00452977Y00674665D01*
X00452921Y00674868D01*
X00452847Y00675127D01*
X00452773Y00675442D01*
X00452681Y00675794D01*
X00452588Y00676164D01*
X00452495Y00676535D01*
Y00676516D01*
X00452477Y00676479D01*
Y00676424D01*
X00452458Y00676349D01*
X00452403Y00676146D01*
X00452329Y00675887D01*
X00452255Y00675572D01*
X00452162Y00675238D01*
X00452051Y00674868D01*
X0045194Y00674479D01*
X00449125Y00665277D01*
X00447737D01*
X00451792Y00677923D01*
X00453217D01*
X00457235Y00665277D01*
D02*
G37*
G36*
X00447163Y00645072D02*
X00443256D01*
Y00646628D01*
X00447163D01*
Y00645072D01*
D02*
G37*
G36*
X00457235Y00637777D02*
X00455736D01*
X00453032Y00646979D01*
Y00646998D01*
X00453014Y00647035D01*
X00452995Y0064709D01*
X00452977Y00647165D01*
X00452921Y00647368D01*
X00452847Y00647627D01*
X00452773Y00647942D01*
X00452681Y00648294D01*
X00452588Y00648664D01*
X00452495Y00649035D01*
Y00649016D01*
X00452477Y00648979D01*
Y00648924D01*
X00452458Y00648849D01*
X00452403Y00648646D01*
X00452329Y00648387D01*
X00452255Y00648072D01*
X00452162Y00647738D01*
X00452051Y00647368D01*
X0045194Y00646979D01*
X00449125Y00637777D01*
X00447737D01*
X00451792Y00650423D01*
X00453217D01*
X00457235Y00637777D01*
D02*
G37*
G36*
X00442515Y0061294D02*
X00441126D01*
X00435664Y0062292D01*
Y0061294D01*
X00434349D01*
Y00625587D01*
X00435775D01*
X004412Y00615644D01*
Y00625587D01*
X00442515D01*
Y0061294D01*
D02*
G37*
G36*
X00457235D02*
X00455736D01*
X00453032Y00622143D01*
Y00622161D01*
X00453014Y00622198D01*
X00452995Y00622254D01*
X00452977Y00622328D01*
X00452921Y00622532D01*
X00452847Y00622791D01*
X00452773Y00623106D01*
X0045268Y00623457D01*
X00452588Y00623828D01*
X00452495Y00624198D01*
Y0062418D01*
X00452477Y00624143D01*
Y00624087D01*
X00452458Y00624013D01*
X00452403Y00623809D01*
X00452329Y0062355D01*
X00452254Y00623235D01*
X00452162Y00622902D01*
X00452051Y00622532D01*
X0045194Y00622143D01*
X00449125Y0061294D01*
X00447737D01*
X00451792Y00625587D01*
X00453217D01*
X00457235Y0061294D01*
D02*
G37*
G36*
X00446237D02*
X00444866D01*
Y00625587D01*
X00446237D01*
Y0061294D01*
D02*
G37*
%LPC*%
G36*
X0043383Y00598933D02*
X00431405D01*
X00431294Y00598914D01*
X00431164D01*
X00430868Y00598877D01*
X00430553Y00598822D01*
X0043022Y00598748D01*
X00429887Y00598655D01*
X00429609Y00598507D01*
X00429572Y00598488D01*
X00429498Y00598433D01*
X00429368Y00598322D01*
X00429201Y00598174D01*
X00429035Y0059797D01*
X0042885Y00597729D01*
X00428683Y00597433D01*
X00428535Y005971D01*
Y00597081D01*
X00428516Y00597044D01*
X00428479Y0059697D01*
X00428461Y00596877D01*
X00428424Y00596748D01*
X00428368Y005966D01*
X00428331Y00596433D01*
X00428275Y00596229D01*
X00428238Y00596026D01*
X00428201Y00595785D01*
X00428146Y00595526D01*
X00428109Y00595266D01*
X00428053Y00594674D01*
X00428035Y00594026D01*
Y00594007D01*
Y00593933D01*
Y00593841D01*
Y00593711D01*
X00428053Y00593544D01*
Y00593359D01*
X00428072Y00593156D01*
X00428109Y00592933D01*
X00428164Y00592452D01*
X00428257Y00591952D01*
X00428387Y00591471D01*
X00428479Y00591248D01*
X00428572Y00591026D01*
Y00591008D01*
X0042859Y00590971D01*
X00428627Y00590915D01*
X00428664Y00590841D01*
X00428775Y00590656D01*
X00428924Y00590415D01*
X00429127Y00590174D01*
X0042935Y00589934D01*
X00429609Y00589711D01*
X00429905Y00589545D01*
X00429924Y00589526D01*
X00430016Y00589508D01*
X00430146Y00589471D01*
X00430331Y00589415D01*
X00430572Y0058936D01*
X00430886Y00589323D01*
X00431238Y00589304D01*
X00431664Y00589286D01*
X0043383D01*
Y00598933D01*
D02*
G37*
%LPD*%
D10*
X011485Y00865D02*
G03*
X011535Y00865I000025J0D01*
G01*
X009545D02*
G03*
X009595Y00865I000025J0D01*
G01*
X00804Y0077695D02*
G03*
X00804Y0077695I-00001J0D01*
G01*
X01001D02*
G03*
X01001Y0077695I-00001J0D01*
G01*
X007565Y00865D02*
G03*
X007615Y00865I000025J0D01*
G01*
X01194Y0077695D02*
G03*
X01194Y0077695I-00001J0D01*
G01*
X01136Y00835D02*
X01166D01*
X011535Y00865D02*
X01166D01*
X01136D02*
X011485D01*
X00942Y00835D02*
X00972D01*
X009595Y00865D02*
X00972D01*
X00942D02*
X009545D01*
X00738Y00821D02*
X00798D01*
X00738Y00771D02*
X00798D01*
X00935D02*
X00995D01*
X00935Y00821D02*
X00995D01*
X00744Y00865D02*
X007565D01*
X007615D02*
X00774D01*
X00744Y00835D02*
X00774D01*
X01128Y00821D02*
X01188D01*
X01128Y00771D02*
X01188D01*
D11*
X0091Y00749D02*
G03*
X0091Y00749I-000315J0D01*
G01*
Y00681D02*
G03*
X0091Y00681I-000315J0D01*
G01*
X013045D02*
G03*
X013045Y00681I-000315J0D01*
G01*
X011025D02*
G03*
X011025Y00681I-000315J0D01*
G01*
X013045Y00749D02*
G03*
X013045Y00749I-000315J0D01*
G01*
X011025D02*
G03*
X011025Y00749I-000315J0D01*
G01*
X00486332Y00772499D02*
G03*
X00486236Y007625I0J-00005D01*
G01*
X00544832Y006605D02*
G03*
X00544832Y006605I-00025J0D01*
G01*
Y006055D02*
G03*
X00544832Y006055I-00025J0D01*
G01*
X00718Y00566D02*
Y00676D01*
X00795D02*
X00818D01*
X00718D02*
X00741D01*
X00718Y00566D02*
X00741D01*
X00795D02*
X00818D01*
Y00676D01*
X00758Y00716D02*
Y00746D01*
Y00716D02*
X00777Y00731D01*
X00758Y00746D02*
X00777Y00731D01*
X005762Y00291D02*
Y00381D01*
X004238Y00291D02*
Y00381D01*
X005762D01*
X004238Y00291D02*
X005762D01*
X00654332Y007085D02*
Y007425D01*
X00555332Y007085D02*
Y007425D01*
X006225Y00532001D02*
X006285D01*
X007715Y00532D02*
X007775D01*
X007775Y0035D02*
Y00532D01*
X006225Y0035D02*
Y00532001D01*
Y0035D02*
X007775D01*
X00555332Y006335D02*
Y006675D01*
X00654332Y006335D02*
Y006675D01*
X00486236Y007625D02*
X00486332Y0073525D01*
Y00772499D02*
Y0079975D01*
X00441332Y0073525D02*
Y0079975D01*
X01148Y00716D02*
Y00746D01*
Y00716D02*
X01167Y00731D01*
X01148Y00746D02*
X01167Y00731D01*
X00499132Y007685D02*
X00507212D01*
X00522452D02*
X00530532D01*
X00499132D02*
Y007825D01*
X00530532Y007685D02*
Y007825D01*
X00530682Y007188D02*
Y0072688D01*
Y0074212D02*
Y007502D01*
X00516682Y007188D02*
X00530682D01*
X00516682Y007502D02*
X00530682D01*
X00955Y00746D02*
X00974Y00731D01*
X00955Y00716D02*
X00974Y00731D01*
X00955Y00716D02*
Y00746D01*
X01208Y00566D02*
Y00676D01*
X01185Y00566D02*
X01208D01*
X01108D02*
X01131D01*
X01108Y00676D02*
X01131D01*
X01185D02*
X01208D01*
X01108Y00566D02*
Y00676D01*
X01015Y00566D02*
Y00676D01*
X00992Y00566D02*
X01015D01*
X00915D02*
X00938D01*
X00915Y00676D02*
X00938D01*
X00992D02*
X01015D01*
X00915Y00566D02*
Y00676D01*
X011325Y0035D02*
X012875D01*
X011325D02*
Y00532001D01*
X012875Y0035D02*
Y00532D01*
X012815D02*
X012875D01*
X011325Y00532001D02*
X011385D01*
X009625Y0035D02*
X011175D01*
X009625D02*
Y00532001D01*
X011175Y0035D02*
Y00532D01*
X011115D02*
X011175D01*
X009625Y00532001D02*
X009685D01*
X007925Y0035D02*
X009475D01*
X007925D02*
Y00532001D01*
X009475Y0035D02*
Y00532D01*
X009415D02*
X009475D01*
X007925Y00532001D02*
X007985D01*
D12*
X008035Y007D02*
Y0071D01*
X007325Y007D02*
Y0071D01*
Y00752D02*
Y00762D01*
X008035Y00752D02*
Y00762D01*
X007325Y007D02*
X008035D01*
X007325Y00762D02*
X008035D01*
X011935Y007D02*
Y0071D01*
X011225Y007D02*
Y0071D01*
Y00752D02*
Y00762D01*
X011935Y00752D02*
Y00762D01*
X011225Y007D02*
X011935D01*
X011225Y00762D02*
X011935D01*
X009295D02*
X010005D01*
X009295Y007D02*
X010005D01*
Y00752D02*
Y00762D01*
X009295Y00752D02*
Y00762D01*
Y007D02*
Y0071D01*
X010005Y007D02*
Y0071D01*
D13*
X00486332Y005718D02*
Y006918D01*
X00421332Y005718D02*
X00486332D01*
X00421332D02*
Y006918D01*
X00486332D01*
D14*
X00866001Y00542999D02*
X00865002Y00543999D01*
X00863002D01*
X00862003Y00542999D01*
Y00539001D01*
X00863002Y00538001D01*
X00865002D01*
X00866001Y00539001D01*
X00868001Y00538001D02*
Y00543999D01*
X00871999Y00538001D01*
Y00543999D01*
X00873999Y00542999D02*
X00874998Y00543999D01*
X00876998D01*
X00877997Y00542999D01*
Y00542D01*
X00876998Y00541D01*
X00875998D01*
X00876998D01*
X00877997Y0054D01*
Y00539001D01*
X00876998Y00538001D01*
X00874998D01*
X00873999Y00539001D01*
X00706452Y00384935D02*
Y00390933D01*
X00709452D01*
X00710451Y00389933D01*
Y00387934D01*
X00709452Y00386934D01*
X00706452D01*
X00708452D02*
X00710451Y00384935D01*
X0071245D02*
X0071445D01*
X0071345D01*
Y00390933D01*
X0071245Y00389933D01*
X00717449D02*
X00718449Y00390933D01*
X00720448D01*
X00721448Y00389933D01*
Y00388934D01*
X00720448Y00387934D01*
X00719448D01*
X00720448D01*
X00721448Y00386934D01*
Y00385935D01*
X00720448Y00384935D01*
X00718449D01*
X00717449Y00385935D01*
X00496001Y00447999D02*
X00495002Y00448999D01*
X00493002D01*
X00492003Y00447999D01*
Y00444001D01*
X00493002Y00443001D01*
X00495002D01*
X00496001Y00444001D01*
X00498001Y00443001D02*
Y00448999D01*
X00501999Y00443001D01*
Y00448999D01*
X00507997D02*
X00503999D01*
Y00446D01*
X00505998Y00447D01*
X00506998D01*
X00507997Y00446D01*
Y00444001D01*
X00506998Y00443001D01*
X00504998D01*
X00503999Y00444001D01*
X00435279Y00766062D02*
X00431281D01*
X00430281Y00765063D01*
Y00763063D01*
X00431281Y00762064D01*
X00435279D01*
X00436279Y00763063D01*
Y00765063D01*
X0043428Y00764063D02*
X00436279Y00766062D01*
Y00765063D02*
X00435279Y00766062D01*
X00431281Y00768062D02*
X00430281Y00769061D01*
Y00771061D01*
X00431281Y0077206D01*
X0043228D01*
X0043328Y00771061D01*
X0043428Y0077206D01*
X00435279D01*
X00436279Y00771061D01*
Y00769061D01*
X00435279Y00768062D01*
X0043428D01*
X0043328Y00769061D01*
X0043228Y00768062D01*
X00431281D01*
X0043328Y00769061D02*
Y00771061D01*
X00603832Y00835398D02*
Y00839396D01*
X00602832Y00840396D01*
X00600833D01*
X00599833Y00839396D01*
Y00835398D01*
X00600833Y00834398D01*
X00602832D01*
X00601833Y00836397D02*
X00603832Y00834398D01*
X00602832D02*
X00603832Y00835398D01*
X0060983Y00834398D02*
X00605831D01*
X0060983Y00838397D01*
Y00839396D01*
X0060883Y00840396D01*
X00606831D01*
X00605831Y00839396D01*
X00664832Y00613501D02*
Y00617499D01*
X00663832Y00618499D01*
X00661833D01*
X00660833Y00617499D01*
Y00613501D01*
X00661833Y00612501D01*
X00663832D01*
X00662832Y006145D02*
X00664832Y00612501D01*
X00663832D02*
X00664832Y00613501D01*
X00666831Y00612501D02*
X0066883D01*
X00667831D01*
Y00618499D01*
X00666831Y00617499D01*
X00696001Y00542999D02*
X00695002Y00543999D01*
X00693002D01*
X00692003Y00542999D01*
Y00539001D01*
X00693002Y00538001D01*
X00695002D01*
X00696001Y00539001D01*
X00698001Y00538001D02*
Y00543999D01*
X00701999Y00538001D01*
Y00543999D01*
X00706998Y00538001D02*
Y00543999D01*
X00703999Y00541D01*
X00707997D01*
X01095001Y00623999D02*
Y00618001D01*
X01099D01*
X01100999D02*
X01102999D01*
X01101999D01*
Y00623999D01*
X01100999Y00622999D01*
X01005999Y008302D02*
X01000001D01*
Y00833199D01*
X01001001Y00834199D01*
X01003D01*
X01004Y00833199D01*
Y008302D01*
Y00832199D02*
X01005999Y00834199D01*
Y00836198D02*
Y00838197D01*
Y00837198D01*
X01000001D01*
X01001001Y00836198D01*
X01005999Y00845195D02*
Y00841196D01*
X01002Y00845195D01*
X01001001D01*
X01000001Y00844195D01*
Y00842196D01*
X01001001Y00841196D01*
X00808999Y008312D02*
X00803001D01*
Y00834199D01*
X00804001Y00835199D01*
X00806D01*
X00807Y00834199D01*
Y008312D01*
Y00833199D02*
X00808999Y00835199D01*
Y00837198D02*
Y00839197D01*
Y00838198D01*
X00803001D01*
X00804001Y00837198D01*
X00808999Y00842196D02*
Y00844196D01*
Y00843196D01*
X00803001D01*
X00804001Y00842196D01*
X00858503Y00553001D02*
Y00558999D01*
X00861501D01*
X00862501Y00557999D01*
Y00556D01*
X00861501Y00555D01*
X00858503D01*
X00860502D02*
X00862501Y00553001D01*
X00864501D02*
X008665D01*
X008655D01*
Y00558999D01*
X00864501Y00557999D01*
X00869499D02*
X00870499Y00558999D01*
X00872498D01*
X00873498Y00557999D01*
Y00554001D01*
X00872498Y00553001D01*
X00870499D01*
X00869499Y00554001D01*
Y00557999D01*
X01198999Y008322D02*
X01193001D01*
Y00835199D01*
X01194001Y00836199D01*
X01196D01*
X01197Y00835199D01*
Y008322D01*
Y00834199D02*
X01198999Y00836199D01*
X01197999Y00838198D02*
X01198999Y00839198D01*
Y00841197D01*
X01197999Y00842197D01*
X01194001D01*
X01193001Y00841197D01*
Y00839198D01*
X01194001Y00838198D01*
X01195D01*
X01196Y00839198D01*
Y00842197D01*
X01053502Y00553001D02*
Y00558999D01*
X01056501D01*
X010575Y00557999D01*
Y00556D01*
X01056501Y00555D01*
X01053502D01*
X01055501D02*
X010575Y00553001D01*
X010595Y00557999D02*
X01060499Y00558999D01*
X01062499D01*
X01063498Y00557999D01*
Y00557D01*
X01062499Y00556D01*
X01063498Y00555D01*
Y00554001D01*
X01062499Y00553001D01*
X01060499D01*
X010595Y00554001D01*
Y00555D01*
X01060499Y00556D01*
X010595Y00557D01*
Y00557999D01*
X01060499Y00556D02*
X01062499D01*
X00767Y00825001D02*
Y00828999D01*
X00766001Y00829999D01*
X00764001D01*
X00763002Y00828999D01*
Y00825001D01*
X00764001Y00824001D01*
X00766001D01*
X00765001Y00826D02*
X00767Y00824001D01*
X00766001D02*
X00767Y00825001D01*
X00769Y00829999D02*
X00772998D01*
Y00828999D01*
X00769Y00825001D01*
Y00824001D01*
X00964Y00825001D02*
Y00828999D01*
X00963001Y00829999D01*
X00961001D01*
X00960002Y00828999D01*
Y00825001D01*
X00961001Y00824001D01*
X00963001D01*
X00962001Y00826D02*
X00964Y00824001D01*
X00963001D02*
X00964Y00825001D01*
X00969998Y00829999D02*
X00967999Y00828999D01*
X00966Y00827D01*
Y00825001D01*
X00966999Y00824001D01*
X00968999D01*
X00969998Y00825001D01*
Y00826D01*
X00968999Y00827D01*
X00966D01*
X00901002Y00623999D02*
Y00618001D01*
X00905D01*
X00907Y00622999D02*
X00907999Y00623999D01*
X00909999D01*
X00910998Y00622999D01*
Y00622D01*
X00909999Y00621D01*
X00908999D01*
X00909999D01*
X00910998Y0062D01*
Y00619001D01*
X00909999Y00618001D01*
X00907999D01*
X00907Y00619001D01*
X00704002Y00623999D02*
Y00618001D01*
X00708D01*
X00713998D02*
X0071D01*
X00713998Y00622D01*
Y00622999D01*
X00712999Y00623999D01*
X00710999D01*
X0071Y00622999D01*
X00751503Y00877999D02*
X00753502D01*
X00752502D01*
Y00872001D01*
X00751503D01*
X00753502D01*
X00760499Y00876999D02*
X007595Y00877999D01*
X00757501D01*
X00756501Y00876999D01*
Y00873001D01*
X00757501Y00872001D01*
X007595D01*
X00760499Y00873001D01*
X00762499Y00876999D02*
X00763499Y00877999D01*
X00765498D01*
X00766498Y00876999D01*
Y00876D01*
X00765498Y00875D01*
X00764498D01*
X00765498D01*
X00766498Y00874D01*
Y00873001D01*
X00765498Y00872001D01*
X00763499D01*
X00762499Y00873001D01*
X00949502Y00875999D02*
X00951502D01*
X00950502D01*
Y00870001D01*
X00949502D01*
X00951502D01*
X009585Y00874999D02*
X009575Y00875999D01*
X009555D01*
X00954501Y00874999D01*
Y00871001D01*
X009555Y00870001D01*
X009575D01*
X009585Y00871001D01*
X00964498Y00870001D02*
X00960499D01*
X00964498Y00874D01*
Y00874999D01*
X00963498Y00875999D01*
X00961499D01*
X00960499Y00874999D01*
X00925002Y00694999D02*
Y00689001D01*
X00928001D01*
X00929Y00690001D01*
Y00693999D01*
X00928001Y00694999D01*
X00925002D01*
X00931Y00693999D02*
X00931999Y00694999D01*
X00933999D01*
X00934998Y00693999D01*
Y00693D01*
X00933999Y00692D01*
X00932999D01*
X00933999D01*
X00934998Y00691D01*
Y00690001D01*
X00933999Y00689001D01*
X00931999D01*
X00931Y00690001D01*
X00704002Y00733999D02*
Y00728001D01*
X00707001D01*
X00708Y00729001D01*
Y00732999D01*
X00707001Y00733999D01*
X00704002D01*
X00713998Y00728001D02*
X0071D01*
X00713998Y00732D01*
Y00732999D01*
X00712999Y00733999D01*
X00710999D01*
X0071Y00732999D01*
X01036001Y00542999D02*
X01035002Y00543999D01*
X01033002D01*
X01032003Y00542999D01*
Y00539001D01*
X01033002Y00538001D01*
X01035002D01*
X01036001Y00539001D01*
X01038001Y00538001D02*
Y00543999D01*
X01041999Y00538001D01*
Y00543999D01*
X01047997Y00538001D02*
X01043999D01*
X01047997Y00542D01*
Y00542999D01*
X01046998Y00543999D01*
X01044998D01*
X01043999Y00542999D01*
X00690199Y00829999D02*
X00689199Y00830999D01*
X006872D01*
X006862Y00829999D01*
Y00826001D01*
X006872Y00825001D01*
X00689199D01*
X00690199Y00826001D01*
X00696197Y00825001D02*
X00692198D01*
X00696197Y00829D01*
Y00829999D01*
X00695197Y00830999D01*
X00693198D01*
X00692198Y00829999D01*
X00702195Y00825001D02*
X00698196D01*
X00702195Y00829D01*
Y00829999D01*
X00701195Y00830999D01*
X00699196D01*
X00698196Y00829999D01*
X00690199Y00816999D02*
X00689199Y00817999D01*
X006872D01*
X006862Y00816999D01*
Y00813001D01*
X006872Y00812001D01*
X00689199D01*
X00690199Y00813001D01*
X00696197Y00812001D02*
X00692198D01*
X00696197Y00816D01*
Y00816999D01*
X00695197Y00817999D01*
X00693198D01*
X00692198Y00816999D01*
X00698196Y00812001D02*
X00700195D01*
X00699196D01*
Y00817999D01*
X00698196Y00816999D01*
X00713001Y00852499D02*
X00712002Y00853499D01*
X00710002D01*
X00709003Y00852499D01*
Y00848501D01*
X00710002Y00847501D01*
X00712002D01*
X00713001Y00848501D01*
X00718999Y00847501D02*
X00715001D01*
X00718999Y008515D01*
Y00852499D01*
X00718Y00853499D01*
X00716D01*
X00715001Y00852499D01*
X00720999D02*
X00721998Y00853499D01*
X00723998D01*
X00724997Y00852499D01*
Y00848501D01*
X00723998Y00847501D01*
X00721998D01*
X00720999Y00848501D01*
Y00852499D01*
X00713501Y00871499D02*
X00712502Y00872499D01*
X00710502D01*
X00709502Y00871499D01*
Y00867501D01*
X00710502Y00866501D01*
X00712502D01*
X00713501Y00867501D01*
X007155Y00866501D02*
X007175D01*
X007165D01*
Y00872499D01*
X007155Y00871499D01*
X00720499Y00867501D02*
X00721499Y00866501D01*
X00723498D01*
X00724498Y00867501D01*
Y00871499D01*
X00723498Y00872499D01*
X00721499D01*
X00720499Y00871499D01*
Y008705D01*
X00721499Y008695D01*
X00724498D01*
X00837001Y00677501D02*
X00836001Y00676501D01*
Y00674502D01*
X00837001Y00673502D01*
X00840999D01*
X00841999Y00674502D01*
Y00676501D01*
X00840999Y00677501D01*
X00841999Y00679501D02*
Y006815D01*
Y006805D01*
X00836001D01*
X00837001Y00679501D01*
Y00684499D02*
X00836001Y00685499D01*
Y00687498D01*
X00837001Y00688498D01*
X00838D01*
X00839Y00687498D01*
X0084Y00688498D01*
X00840999D01*
X00841999Y00687498D01*
Y00685499D01*
X00840999Y00684499D01*
X0084D01*
X00839Y00685499D01*
X00838Y00684499D01*
X00837001D01*
X00839Y00685499D02*
Y00687498D01*
X00837001Y00745501D02*
X00836001Y00744501D01*
Y00742502D01*
X00837001Y00741503D01*
X00840999D01*
X00841999Y00742502D01*
Y00744501D01*
X00840999Y00745501D01*
X00841999Y00747501D02*
Y007495D01*
Y007485D01*
X00836001D01*
X00837001Y00747501D01*
X00836001Y00752499D02*
Y00756498D01*
X00837001D01*
X00840999Y00752499D01*
X00841999D01*
X00890199Y00826999D02*
X00889199Y00827999D01*
X008872D01*
X008862Y00826999D01*
Y00823001D01*
X008872Y00822001D01*
X00889199D01*
X00890199Y00823001D01*
X00892198Y00822001D02*
X00894197D01*
X00893198D01*
Y00827999D01*
X00892198Y00826999D01*
X00901195Y00827999D02*
X00899196Y00826999D01*
X00897196Y00825D01*
Y00823001D01*
X00898196Y00822001D01*
X00900195D01*
X00901195Y00823001D01*
Y00824D01*
X00900195Y00825D01*
X00897196D01*
X00890199Y00813999D02*
X00889199Y00814999D01*
X008872D01*
X008862Y00813999D01*
Y00810001D01*
X008872Y00809001D01*
X00889199D01*
X00890199Y00810001D01*
X00892198Y00809001D02*
X00894197D01*
X00893198D01*
Y00814999D01*
X00892198Y00813999D01*
X00901195Y00814999D02*
X00897196D01*
Y00812D01*
X00899196Y00813D01*
X00900195D01*
X00901195Y00812D01*
Y00810001D01*
X00900195Y00809001D01*
X00898196D01*
X00897196Y00810001D01*
X00911501Y00851499D02*
X00910501Y00852499D01*
X00908502D01*
X00907503Y00851499D01*
Y00847501D01*
X00908502Y00846501D01*
X00910501D01*
X00911501Y00847501D01*
X00913501Y00846501D02*
X009155D01*
X009145D01*
Y00852499D01*
X00913501Y00851499D01*
X00921498Y00846501D02*
Y00852499D01*
X00918499Y008495D01*
X00922498D01*
X00912501Y00871499D02*
X00911501Y00872499D01*
X00909502D01*
X00908503Y00871499D01*
Y00867501D01*
X00909502Y00866501D01*
X00911501D01*
X00912501Y00867501D01*
X00914501Y00866501D02*
X009165D01*
X009155D01*
Y00872499D01*
X00914501Y00871499D01*
X00919499D02*
X00920499Y00872499D01*
X00922498D01*
X00923498Y00871499D01*
Y008705D01*
X00922498Y008695D01*
X00921498D01*
X00922498D01*
X00923498Y008685D01*
Y00867501D01*
X00922498Y00866501D01*
X00920499D01*
X00919499Y00867501D01*
X01029001Y00678501D02*
X01028001Y00677502D01*
Y00675502D01*
X01029001Y00674502D01*
X01032999D01*
X01033999Y00675502D01*
Y00677502D01*
X01032999Y00678501D01*
X01033999Y006805D02*
Y006825D01*
Y006815D01*
X01028001D01*
X01029001Y006805D01*
X01033999Y00689498D02*
Y00685499D01*
X0103Y00689498D01*
X01029001D01*
X01028001Y00688498D01*
Y00686499D01*
X01029001Y00685499D01*
Y00746501D02*
X01028001Y00745501D01*
Y00743502D01*
X01029001Y00742502D01*
X01032999D01*
X01033999Y00743502D01*
Y00745501D01*
X01032999Y00746501D01*
X01033999Y007485D02*
Y007505D01*
Y007495D01*
X01028001D01*
X01029001Y007485D01*
X01033999Y00753499D02*
Y00755498D01*
Y00754498D01*
X01028001D01*
X01029001Y00753499D01*
X01207001Y00542999D02*
X01206001Y00543999D01*
X01204002D01*
X01203002Y00542999D01*
Y00539001D01*
X01204002Y00538001D01*
X01206001D01*
X01207001Y00539001D01*
X01209Y00538001D02*
Y00543999D01*
X01212999Y00538001D01*
Y00543999D01*
X01214998Y00538001D02*
X01216998D01*
X01215998D01*
Y00543999D01*
X01214998Y00542999D01*
X01255502Y00553001D02*
Y00558999D01*
X01258501D01*
X012595Y00557999D01*
Y00556D01*
X01258501Y00555D01*
X01255502D01*
X01257501D02*
X012595Y00553001D01*
X012615Y00558999D02*
X01265498D01*
Y00557999D01*
X012615Y00554001D01*
Y00553001D01*
X01157Y00825001D02*
Y00828999D01*
X01156001Y00829999D01*
X01154001D01*
X01153002Y00828999D01*
Y00825001D01*
X01154001Y00824001D01*
X01156001D01*
X01155001Y00826D02*
X01157Y00824001D01*
X01156001D02*
X01157Y00825001D01*
X01162998Y00829999D02*
X01159D01*
Y00827D01*
X01160999Y00828D01*
X01161999D01*
X01162998Y00827D01*
Y00825001D01*
X01161999Y00824001D01*
X01159999D01*
X01159Y00825001D01*
X01144502Y00874999D02*
X01146501D01*
X01145502D01*
Y00869001D01*
X01144502D01*
X01146501D01*
X01153499Y00873999D02*
X01152499Y00874999D01*
X011505D01*
X01149501Y00873999D01*
Y00870001D01*
X011505Y00869001D01*
X01152499D01*
X01153499Y00870001D01*
X01155499Y00869001D02*
X01157498D01*
X01156498D01*
Y00874999D01*
X01155499Y00873999D01*
X01125001Y00693999D02*
Y00688001D01*
X01128D01*
X01129Y00689001D01*
Y00692999D01*
X01128Y00693999D01*
X01125001D01*
X01130999Y00688001D02*
X01132999D01*
X01131999D01*
Y00693999D01*
X01130999Y00692999D01*
X01079199Y00825999D02*
X01078199Y00826999D01*
X010762D01*
X010752Y00825999D01*
Y00822001D01*
X010762Y00821001D01*
X01078199D01*
X01079199Y00822001D01*
X01081198Y00821001D02*
X01083197D01*
X01082198D01*
Y00826999D01*
X01081198Y00825999D01*
X01086197D02*
X01087196Y00826999D01*
X01089195D01*
X01090195Y00825999D01*
Y00822001D01*
X01089195Y00821001D01*
X01087196D01*
X01086197Y00822001D01*
Y00825999D01*
X01104Y00852499D02*
X01103001Y00853499D01*
X01101001D01*
X01100002Y00852499D01*
Y00848501D01*
X01101001Y00847501D01*
X01103001D01*
X01104Y00848501D01*
X01106Y00852499D02*
X01106999Y00853499D01*
X01108999D01*
X01109998Y00852499D01*
Y008515D01*
X01108999Y008505D01*
X01109998Y008495D01*
Y00848501D01*
X01108999Y00847501D01*
X01106999D01*
X01106Y00848501D01*
Y008495D01*
X01106999Y008505D01*
X01106Y008515D01*
Y00852499D01*
X01106999Y008505D02*
X01108999D01*
X01079199Y00812999D02*
X01078199Y00813999D01*
X010762D01*
X010752Y00812999D01*
Y00809001D01*
X010762Y00808001D01*
X01078199D01*
X01079199Y00809001D01*
X01081198D02*
X01082198Y00808001D01*
X01084197D01*
X01085197Y00809001D01*
Y00812999D01*
X01084197Y00813999D01*
X01082198D01*
X01081198Y00812999D01*
Y00812D01*
X01082198Y00811D01*
X01085197D01*
X01104Y00871499D02*
X01103001Y00872499D01*
X01101001D01*
X01100002Y00871499D01*
Y00867501D01*
X01101001Y00866501D01*
X01103001D01*
X01104Y00867501D01*
X01106Y00872499D02*
X01109998D01*
Y00871499D01*
X01106Y00867501D01*
Y00866501D01*
X01231001Y00679D02*
X01230001Y00678001D01*
Y00676001D01*
X01231001Y00675002D01*
X01234999D01*
X01235999Y00676001D01*
Y00678001D01*
X01234999Y00679D01*
X01230001Y00684998D02*
Y00681D01*
X01233D01*
X01232Y00682999D01*
Y00683999D01*
X01233Y00684998D01*
X01234999D01*
X01235999Y00683999D01*
Y00681999D01*
X01234999Y00681D01*
X01231001Y00748D02*
X01230001Y00747001D01*
Y00745001D01*
X01231001Y00744002D01*
X01234999D01*
X01235999Y00745001D01*
Y00747001D01*
X01234999Y00748D01*
X01230001Y00753998D02*
X01231001Y00751999D01*
X01233Y0075D01*
X01234999D01*
X01235999Y00750999D01*
Y00752999D01*
X01234999Y00753998D01*
X01234D01*
X01233Y00752999D01*
Y0075D01*
X00528833Y00796501D02*
Y00802499D01*
X00531832D01*
X00532832Y00801499D01*
Y007995D01*
X00531832Y007985D01*
X00528833D01*
X00530833D02*
X00532832Y00796501D01*
X0053883Y00802499D02*
X00536831Y00801499D01*
X00534831Y007995D01*
Y00797501D01*
X00535831Y00796501D01*
X0053783D01*
X0053883Y00797501D01*
Y007985D01*
X0053783Y007995D01*
X00534831D01*
X00536953Y00707501D02*
Y00713499D01*
X00539952D01*
X00540952Y00712499D01*
Y007105D01*
X00539952Y007095D01*
X00536953D01*
X00538952D02*
X00540952Y00707501D01*
X0054695Y00713499D02*
X00542951D01*
Y007105D01*
X0054495Y007115D01*
X0054595D01*
X0054695Y007105D01*
Y00708501D01*
X0054595Y00707501D01*
X00543951D01*
X00542951Y00708501D01*
X00528833Y00809501D02*
Y00815499D01*
X00531832D01*
X00532832Y00814499D01*
Y008125D01*
X00531832Y008115D01*
X00528833D01*
X00530833D02*
X00532832Y00809501D01*
X0053783D02*
Y00815499D01*
X00534831Y008125D01*
X0053883D01*
X00439783Y00833913D02*
Y00839911D01*
X00442782D01*
X00443782Y00838911D01*
Y00836912D01*
X00442782Y00835912D01*
X00439783D01*
X00441783D02*
X00443782Y00833913D01*
X00445781Y00838911D02*
X00446781Y00839911D01*
X0044878D01*
X0044978Y00838911D01*
Y00837912D01*
X0044878Y00836912D01*
X00447781D01*
X0044878D01*
X0044978Y00835912D01*
Y00834913D01*
X0044878Y00833913D01*
X00446781D01*
X00445781Y00834913D01*
X00536833Y00694501D02*
Y00700499D01*
X00539832D01*
X00540832Y00699499D01*
Y006975D01*
X00539832Y006965D01*
X00536833D01*
X00538833D02*
X00540832Y00694501D01*
X0054683D02*
X00542831D01*
X0054683Y006985D01*
Y00699499D01*
X0054583Y00700499D01*
X00543831D01*
X00542831Y00699499D01*
X00492833Y00704501D02*
Y00710499D01*
X00495832D01*
X00496832Y00709499D01*
Y007075D01*
X00495832Y007065D01*
X00492833D01*
X00494832D02*
X00496832Y00704501D01*
X00498831D02*
X0050083D01*
X00499831D01*
Y00710499D01*
X00498831Y00709499D01*
X00538832Y00773501D02*
Y00777499D01*
X00537832Y00778499D01*
X00535833D01*
X00534833Y00777499D01*
Y00773501D01*
X00535833Y00772501D01*
X00537832D01*
X00536833Y007745D02*
X00538832Y00772501D01*
X00537832D02*
X00538832Y00773501D01*
X0054383Y00772501D02*
Y00778499D01*
X00540831Y007755D01*
X0054483D01*
X00501832Y00732501D02*
Y00736499D01*
X00500832Y00737499D01*
X00498833D01*
X00497833Y00736499D01*
Y00732501D01*
X00498833Y00731501D01*
X00500832D01*
X00499833Y007335D02*
X00501832Y00731501D01*
X00500832D02*
X00501832Y00732501D01*
X00503831Y00736499D02*
X00504831Y00737499D01*
X0050683D01*
X0050783Y00736499D01*
Y007355D01*
X0050683Y007345D01*
X00505831D01*
X0050683D01*
X0050783Y007335D01*
Y00732501D01*
X0050683Y00731501D01*
X00504831D01*
X00503831Y00732501D01*
X00548883Y00679956D02*
X00547883Y00678957D01*
Y00676957D01*
X00548883Y00675958D01*
X00552881D01*
X00553881Y00676957D01*
Y00678957D01*
X00552881Y00679956D01*
X00553881Y00685954D02*
Y00681956D01*
X00549882Y00685954D01*
X00548883D01*
X00547883Y00684955D01*
Y00682955D01*
X00548883Y00681956D01*
X00520402Y00574243D02*
X00519402Y00575243D01*
X00517403D01*
X00516403Y00574243D01*
Y00570245D01*
X00517403Y00569245D01*
X00519402D01*
X00520402Y00570245D01*
X00522401Y00569245D02*
X00524401D01*
X00523401D01*
Y00575243D01*
X00522401Y00574243D01*
X00450833Y00703499D02*
Y00697501D01*
X00453832D01*
X00454832Y00698501D01*
Y006995D01*
X00453832Y007005D01*
X00450833D01*
X00453832D01*
X00454832Y007015D01*
Y00702499D01*
X00453832Y00703499D01*
X00450833D01*
X00456831Y00697501D02*
X0045883D01*
X00457831D01*
Y00703499D01*
X00456831Y00702499D01*
M02*
