G04*
G04 #@! TF.GenerationSoftware,Altium Limited,Altium Designer,24.1.2 (44)*
G04*
G04 Layer_Color=128*
%FSTAX44Y44*%
%MOMM*%
G71*
G04*
G04 #@! TF.SameCoordinates,12363CD6-4FB3-4025-AA91-2C02E6BC70D7*
G04*
G04*
G04 #@! TF.FilePolarity,Positive*
G04*
G01*
G75*
%ADD71C,0.0508*%
D71*
X008625Y00749D02*
X008695D01*
X00866Y007455D02*
Y007525D01*
X008875Y00749D02*
X008945D01*
X00891Y007455D02*
Y007525D01*
X008625Y00681D02*
X008695D01*
X00866Y006775D02*
Y006845D01*
X008875Y00681D02*
X008945D01*
X00891Y006775D02*
Y006845D01*
X00470832Y005941D02*
X00478832D01*
X00474832Y005901D02*
Y005981D01*
X00516332Y005955D02*
X00523332D01*
X00519832Y00592D02*
Y00599D01*
X00496Y004014D02*
X00504D01*
X005Y003974D02*
Y004054D01*
X00496Y004268D02*
X00504D01*
X005Y004228D02*
Y004308D01*
X005214Y004014D02*
X005294D01*
X005254Y003974D02*
Y004054D01*
X004706Y004014D02*
X004786D01*
X004746Y003974D02*
Y004054D01*
X004706Y004268D02*
X004786D01*
X004746Y004228D02*
Y004308D01*
X005214Y004268D02*
X005294D01*
X005254Y004228D02*
Y004308D01*
X00470832Y006703D02*
X00478832D01*
X00474832Y006663D02*
Y006743D01*
X00470832Y006449D02*
X00478832D01*
X00474832Y006409D02*
Y006489D01*
X00470832Y006195D02*
X00478832D01*
X00474832Y006155D02*
Y006235D01*
X01282Y00681D02*
X01289D01*
X012855Y006775D02*
Y006845D01*
X01257Y00681D02*
X01264D01*
X012605Y006775D02*
Y006845D01*
X0108Y00681D02*
X01087D01*
X010835Y006775D02*
Y006845D01*
X01055Y00681D02*
X01062D01*
X010585Y006775D02*
Y006845D01*
X01282Y00749D02*
X01289D01*
X012855Y007455D02*
Y007525D01*
X01257Y00749D02*
X01264D01*
X012605Y007455D02*
Y007525D01*
X0108Y00749D02*
X01087D01*
X010835Y007455D02*
Y007525D01*
X01055Y00749D02*
X01062D01*
X010585Y007455D02*
Y007525D01*
X006295Y004535D02*
X006355D01*
X006325Y004505D02*
Y004565D01*
X007645Y004535D02*
X007705D01*
X007675Y004505D02*
Y004565D01*
X006495Y005135D02*
X006785D01*
X00664Y00499D02*
Y00528D01*
X007215Y005135D02*
X007505D01*
X00736Y00499D02*
Y00528D01*
X00516332Y006505D02*
X00523332D01*
X00519832Y00647D02*
Y00654D01*
X00516332Y006705D02*
X00523332D01*
X00519832Y00667D02*
Y00674D01*
X00516332Y006155D02*
X00523332D01*
X00519832Y00612D02*
Y00619D01*
X012315Y005135D02*
X012605D01*
X01246Y00499D02*
Y00528D01*
X011595Y005135D02*
X011885D01*
X01174Y00499D02*
Y00528D01*
X012745Y004535D02*
X012805D01*
X012775Y004505D02*
Y004565D01*
X011395Y004535D02*
X011455D01*
X011425Y004505D02*
Y004565D01*
X010615Y005135D02*
X010905D01*
X01076Y00499D02*
Y00528D01*
X009895Y005135D02*
X010185D01*
X01004Y00499D02*
Y00528D01*
X011045Y004535D02*
X011105D01*
X011075Y004505D02*
Y004565D01*
X009695Y004535D02*
X009755D01*
X009725Y004505D02*
Y004565D01*
X008915Y005135D02*
X009205D01*
X00906Y00499D02*
Y00528D01*
X008195Y005135D02*
X008485D01*
X00834Y00499D02*
Y00528D01*
X009345Y004535D02*
X009405D01*
X009375Y004505D02*
Y004565D01*
X007995Y004535D02*
X008055D01*
X008025Y004505D02*
Y004565D01*
X012685Y009398D02*
X012715D01*
X0127Y009383D02*
Y009413D01*
X012812Y009144D02*
X012842D01*
X012827Y009129D02*
Y009159D01*
X012812Y008636D02*
X012842D01*
X012827Y008621D02*
Y008651D01*
X012812Y008128D02*
X012842D01*
X012827Y008113D02*
Y008143D01*
X012812Y007112D02*
X012842D01*
X012827Y007097D02*
Y007127D01*
X012812Y006096D02*
X012842D01*
X012827Y006081D02*
Y006111D01*
X012685Y005842D02*
X012715D01*
X0127Y005827D02*
Y005857D01*
X012685Y004826D02*
X012715D01*
X0127Y004811D02*
Y004841D01*
X012685Y004318D02*
X012715D01*
X0127Y004303D02*
Y004333D01*
X012812Y004064D02*
X012842D01*
X012827Y004049D02*
Y004079D01*
X012685Y00381D02*
X012715D01*
X0127Y003795D02*
Y003825D01*
X012812Y003556D02*
X012842D01*
X012827Y003541D02*
Y003571D01*
X012685Y003302D02*
X012715D01*
X0127Y003287D02*
Y003317D01*
X012812Y003048D02*
X012842D01*
X012827Y003033D02*
Y003063D01*
X012685Y002794D02*
X012715D01*
X0127Y002779D02*
Y002809D01*
X012558Y006096D02*
X012588D01*
X012573Y006081D02*
Y006111D01*
X012431Y005842D02*
X012461D01*
X012446Y005827D02*
Y005857D01*
X012558Y004572D02*
X012588D01*
X012573Y004557D02*
Y004587D01*
X012431Y004318D02*
X012461D01*
X012446Y004303D02*
Y004333D01*
X012558Y004064D02*
X012588D01*
X012573Y004049D02*
Y004079D01*
X012431Y00381D02*
X012461D01*
X012446Y003795D02*
Y003825D01*
X012558Y003556D02*
X012588D01*
X012573Y003541D02*
Y003571D01*
X012431Y003302D02*
X012461D01*
X012446Y003287D02*
Y003317D01*
X012558Y003048D02*
X012588D01*
X012573Y003033D02*
Y003063D01*
X012431Y002794D02*
X012461D01*
X012446Y002779D02*
Y002809D01*
X012304Y006096D02*
X012334D01*
X012319Y006081D02*
Y006111D01*
X012177Y005842D02*
X012207D01*
X012192Y005827D02*
Y005857D01*
X012177Y004826D02*
X012207D01*
X012192Y004811D02*
Y004841D01*
X012304Y004572D02*
X012334D01*
X012319Y004557D02*
Y004587D01*
X012177Y004318D02*
X012207D01*
X012192Y004303D02*
Y004333D01*
X012304Y004064D02*
X012334D01*
X012319Y004049D02*
Y004079D01*
X012177Y00381D02*
X012207D01*
X012192Y003795D02*
Y003825D01*
X012304Y003556D02*
X012334D01*
X012319Y003541D02*
Y003571D01*
X012177Y003302D02*
X012207D01*
X012192Y003287D02*
Y003317D01*
X012304Y003048D02*
X012334D01*
X012319Y003033D02*
Y003063D01*
X012177Y002794D02*
X012207D01*
X012192Y002779D02*
Y002809D01*
X01205Y008636D02*
X01208D01*
X012065Y008621D02*
Y008651D01*
X011923Y008382D02*
X011953D01*
X011938Y008367D02*
Y008397D01*
X01205Y008128D02*
X01208D01*
X012065Y008113D02*
Y008143D01*
X011923Y006858D02*
X011953D01*
X011938Y006843D02*
Y006873D01*
X01205Y006604D02*
X01208D01*
X012065Y006589D02*
Y006619D01*
X011923Y00635D02*
X011953D01*
X011938Y006335D02*
Y006365D01*
X01205Y006096D02*
X01208D01*
X012065Y006081D02*
Y006111D01*
X011923Y005842D02*
X011953D01*
X011938Y005827D02*
Y005857D01*
X011923Y004826D02*
X011953D01*
X011938Y004811D02*
Y004841D01*
X01205Y004572D02*
X01208D01*
X012065Y004557D02*
Y004587D01*
X011923Y004318D02*
X011953D01*
X011938Y004303D02*
Y004333D01*
X01205Y004064D02*
X01208D01*
X012065Y004049D02*
Y004079D01*
X011923Y00381D02*
X011953D01*
X011938Y003795D02*
Y003825D01*
X01205Y003556D02*
X01208D01*
X012065Y003541D02*
Y003571D01*
X011923Y003302D02*
X011953D01*
X011938Y003287D02*
Y003317D01*
X01205Y003048D02*
X01208D01*
X012065Y003033D02*
Y003063D01*
X011923Y002794D02*
X011953D01*
X011938Y002779D02*
Y002809D01*
X011796Y008636D02*
X011826D01*
X011811Y008621D02*
Y008651D01*
X011796Y00762D02*
X011826D01*
X011811Y007605D02*
Y007635D01*
X011669Y007366D02*
X011699D01*
X011684Y007351D02*
Y007381D01*
X011669Y00635D02*
X011699D01*
X011684Y006335D02*
Y006365D01*
X011796Y004572D02*
X011826D01*
X011811Y004557D02*
Y004587D01*
X011669Y004318D02*
X011699D01*
X011684Y004303D02*
Y004333D01*
X011796Y004064D02*
X011826D01*
X011811Y004049D02*
Y004079D01*
X011669Y00381D02*
X011699D01*
X011684Y003795D02*
Y003825D01*
X011796Y003556D02*
X011826D01*
X011811Y003541D02*
Y003571D01*
X011669Y003302D02*
X011699D01*
X011684Y003287D02*
Y003317D01*
X011796Y003048D02*
X011826D01*
X011811Y003033D02*
Y003063D01*
X011669Y002794D02*
X011699D01*
X011684Y002779D02*
Y002809D01*
X011542Y007112D02*
X011572D01*
X011557Y007097D02*
Y007127D01*
X011542Y006096D02*
X011572D01*
X011557Y006081D02*
Y006111D01*
X011415Y004826D02*
X011445D01*
X01143Y004811D02*
Y004841D01*
X011542Y004572D02*
X011572D01*
X011557Y004557D02*
Y004587D01*
X011415Y004318D02*
X011445D01*
X01143Y004303D02*
Y004333D01*
X011542Y004064D02*
X011572D01*
X011557Y004049D02*
Y004079D01*
X011415Y00381D02*
X011445D01*
X01143Y003795D02*
Y003825D01*
X011542Y003556D02*
X011572D01*
X011557Y003541D02*
Y003571D01*
X011415Y003302D02*
X011445D01*
X01143Y003287D02*
Y003317D01*
X011542Y003048D02*
X011572D01*
X011557Y003033D02*
Y003063D01*
X011415Y002794D02*
X011445D01*
X01143Y002779D02*
Y002809D01*
X011288Y00508D02*
X011318D01*
X011303Y005065D02*
Y005095D01*
X011161Y004826D02*
X011191D01*
X011176Y004811D02*
Y004841D01*
X011288Y004572D02*
X011318D01*
X011303Y004557D02*
Y004587D01*
X011161Y004318D02*
X011191D01*
X011176Y004303D02*
Y004333D01*
X011288Y004064D02*
X011318D01*
X011303Y004049D02*
Y004079D01*
X011161Y00381D02*
X011191D01*
X011176Y003795D02*
Y003825D01*
X011288Y003556D02*
X011318D01*
X011303Y003541D02*
Y003571D01*
X011161Y003302D02*
X011191D01*
X011176Y003287D02*
Y003317D01*
X011288Y003048D02*
X011318D01*
X011303Y003033D02*
Y003063D01*
X011161Y002794D02*
X011191D01*
X011176Y002779D02*
Y002809D01*
X010907Y004318D02*
X010937D01*
X010922Y004303D02*
Y004333D01*
X011034Y004064D02*
X011064D01*
X011049Y004049D02*
Y004079D01*
X010907Y00381D02*
X010937D01*
X010922Y003795D02*
Y003825D01*
X011034Y003556D02*
X011064D01*
X011049Y003541D02*
Y003571D01*
X010907Y003302D02*
X010937D01*
X010922Y003287D02*
Y003317D01*
X011034Y003048D02*
X011064D01*
X011049Y003033D02*
Y003063D01*
X010907Y002794D02*
X010937D01*
X010922Y002779D02*
Y002809D01*
X01078Y008636D02*
X01081D01*
X010795Y008621D02*
Y008651D01*
X01078Y008128D02*
X01081D01*
X010795Y008113D02*
Y008143D01*
X01078Y007112D02*
X01081D01*
X010795Y007097D02*
Y007127D01*
X010653Y004318D02*
X010683D01*
X010668Y004303D02*
Y004333D01*
X01078Y004064D02*
X01081D01*
X010795Y004049D02*
Y004079D01*
X010653Y00381D02*
X010683D01*
X010668Y003795D02*
Y003825D01*
X01078Y003556D02*
X01081D01*
X010795Y003541D02*
Y003571D01*
X010653Y003302D02*
X010683D01*
X010668Y003287D02*
Y003317D01*
X01078Y003048D02*
X01081D01*
X010795Y003033D02*
Y003063D01*
X010653Y002794D02*
X010683D01*
X010668Y002779D02*
Y002809D01*
X010399Y004826D02*
X010429D01*
X010414Y004811D02*
Y004841D01*
X010526Y004572D02*
X010556D01*
X010541Y004557D02*
Y004587D01*
X010399Y004318D02*
X010429D01*
X010414Y004303D02*
Y004333D01*
X010526Y004064D02*
X010556D01*
X010541Y004049D02*
Y004079D01*
X010399Y00381D02*
X010429D01*
X010414Y003795D02*
Y003825D01*
X010526Y003556D02*
X010556D01*
X010541Y003541D02*
Y003571D01*
X010399Y003302D02*
X010429D01*
X010414Y003287D02*
Y003317D01*
X010526Y003048D02*
X010556D01*
X010541Y003033D02*
Y003063D01*
X010399Y002794D02*
X010429D01*
X010414Y002779D02*
Y002809D01*
X010272Y004572D02*
X010302D01*
X010287Y004557D02*
Y004587D01*
X010145Y004318D02*
X010175D01*
X01016Y004303D02*
Y004333D01*
X010145Y00381D02*
X010175D01*
X01016Y003795D02*
Y003825D01*
X010272Y003556D02*
X010302D01*
X010287Y003541D02*
Y003571D01*
X010145Y003302D02*
X010175D01*
X01016Y003287D02*
Y003317D01*
X010272Y003048D02*
X010302D01*
X010287Y003033D02*
Y003063D01*
X010145Y002794D02*
X010175D01*
X01016Y002779D02*
Y002809D01*
X010018Y008636D02*
X010048D01*
X010033Y008621D02*
Y008651D01*
X010018Y008128D02*
X010048D01*
X010033Y008113D02*
Y008143D01*
X009891Y006858D02*
X009921D01*
X009906Y006843D02*
Y006873D01*
X010018Y006604D02*
X010048D01*
X010033Y006589D02*
Y006619D01*
X009891Y00635D02*
X009921D01*
X009906Y006335D02*
Y006365D01*
X010018Y004572D02*
X010048D01*
X010033Y004557D02*
Y004587D01*
X009891Y004318D02*
X009921D01*
X009906Y004303D02*
Y004333D01*
X010018Y004064D02*
X010048D01*
X010033Y004049D02*
Y004079D01*
X009891Y00381D02*
X009921D01*
X009906Y003795D02*
Y003825D01*
X010018Y003556D02*
X010048D01*
X010033Y003541D02*
Y003571D01*
X009891Y003302D02*
X009921D01*
X009906Y003287D02*
Y003317D01*
X010018Y003048D02*
X010048D01*
X010033Y003033D02*
Y003063D01*
X009891Y002794D02*
X009921D01*
X009906Y002779D02*
Y002809D01*
X009637Y007366D02*
X009667D01*
X009652Y007351D02*
Y007381D01*
X009764Y007112D02*
X009794D01*
X009779Y007097D02*
Y007127D01*
X009637Y00635D02*
X009667D01*
X009652Y006335D02*
Y006365D01*
X009637Y004826D02*
X009667D01*
X009652Y004811D02*
Y004841D01*
X009637Y004318D02*
X009667D01*
X009652Y004303D02*
Y004333D01*
X009764Y004064D02*
X009794D01*
X009779Y004049D02*
Y004079D01*
X009637Y00381D02*
X009667D01*
X009652Y003795D02*
Y003825D01*
X009637Y003302D02*
X009667D01*
X009652Y003287D02*
Y003317D01*
X009764Y003048D02*
X009794D01*
X009779Y003033D02*
Y003063D01*
X009637Y002794D02*
X009667D01*
X009652Y002779D02*
Y002809D01*
X009383Y005334D02*
X009413D01*
X009398Y005319D02*
Y005349D01*
X00951Y004572D02*
X00954D01*
X009525Y004557D02*
Y004587D01*
X009383Y004318D02*
X009413D01*
X009398Y004303D02*
Y004333D01*
X00951Y004064D02*
X00954D01*
X009525Y004049D02*
Y004079D01*
X009383Y00381D02*
X009413D01*
X009398Y003795D02*
Y003825D01*
X00951Y003556D02*
X00954D01*
X009525Y003541D02*
Y003571D01*
X009383Y003302D02*
X009413D01*
X009398Y003287D02*
Y003317D01*
X00951Y003048D02*
X00954D01*
X009525Y003033D02*
Y003063D01*
X009383Y002794D02*
X009413D01*
X009398Y002779D02*
Y002809D01*
X009129Y004318D02*
X009159D01*
X009144Y004303D02*
Y004333D01*
X009256Y004064D02*
X009286D01*
X009271Y004049D02*
Y004079D01*
X009129Y00381D02*
X009159D01*
X009144Y003795D02*
Y003825D01*
X009256Y003556D02*
X009286D01*
X009271Y003541D02*
Y003571D01*
X009129Y003302D02*
X009159D01*
X009144Y003287D02*
Y003317D01*
X009256Y003048D02*
X009286D01*
X009271Y003033D02*
Y003063D01*
X009129Y002794D02*
X009159D01*
X009144Y002779D02*
Y002809D01*
X008875Y008382D02*
X008905D01*
X00889Y008367D02*
Y008397D01*
X008875Y007874D02*
X008905D01*
X00889Y007859D02*
Y007889D01*
X008875Y00635D02*
X008905D01*
X00889Y006335D02*
Y006365D01*
X009002Y004064D02*
X009032D01*
X009017Y004049D02*
Y004079D01*
X008875Y00381D02*
X008905D01*
X00889Y003795D02*
Y003825D01*
X009002Y003556D02*
X009032D01*
X009017Y003541D02*
Y003571D01*
X008875Y003302D02*
X008905D01*
X00889Y003287D02*
Y003317D01*
X009002Y003048D02*
X009032D01*
X009017Y003033D02*
Y003063D01*
X008875Y002794D02*
X008905D01*
X00889Y002779D02*
Y002809D01*
X008621Y004826D02*
X008651D01*
X008636Y004811D02*
Y004841D01*
X008748Y004572D02*
X008778D01*
X008763Y004557D02*
Y004587D01*
X008621Y004318D02*
X008651D01*
X008636Y004303D02*
Y004333D01*
X008748Y004064D02*
X008778D01*
X008763Y004049D02*
Y004079D01*
X008621Y00381D02*
X008651D01*
X008636Y003795D02*
Y003825D01*
X008748Y003556D02*
X008778D01*
X008763Y003541D02*
Y003571D01*
X008621Y003302D02*
X008651D01*
X008636Y003287D02*
Y003317D01*
X008748Y003048D02*
X008778D01*
X008763Y003033D02*
Y003063D01*
X008621Y002794D02*
X008651D01*
X008636Y002779D02*
Y002809D01*
X008494Y004572D02*
X008524D01*
X008509Y004557D02*
Y004587D01*
X008367Y004318D02*
X008397D01*
X008382Y004303D02*
Y004333D01*
X008494Y003556D02*
X008524D01*
X008509Y003541D02*
Y003571D01*
X008367Y003302D02*
X008397D01*
X008382Y003287D02*
Y003317D01*
X008494Y003048D02*
X008524D01*
X008509Y003033D02*
Y003063D01*
X008367Y002794D02*
X008397D01*
X008382Y002779D02*
Y002809D01*
X008113Y008382D02*
X008143D01*
X008128Y008367D02*
Y008397D01*
X008113Y007874D02*
X008143D01*
X008128Y007859D02*
Y007889D01*
X008113Y006858D02*
X008143D01*
X008128Y006843D02*
Y006873D01*
X008113Y00635D02*
X008143D01*
X008128Y006335D02*
Y006365D01*
X008113Y004826D02*
X008143D01*
X008128Y004811D02*
Y004841D01*
X00824Y004572D02*
X00827D01*
X008255Y004557D02*
Y004587D01*
X008113Y004318D02*
X008143D01*
X008128Y004303D02*
Y004333D01*
X00824Y004064D02*
X00827D01*
X008255Y004049D02*
Y004079D01*
X008113Y00381D02*
X008143D01*
X008128Y003795D02*
Y003825D01*
X00824Y003556D02*
X00827D01*
X008255Y003541D02*
Y003571D01*
X008113Y003302D02*
X008143D01*
X008128Y003287D02*
Y003317D01*
X00824Y003048D02*
X00827D01*
X008255Y003033D02*
Y003063D01*
X008113Y002794D02*
X008143D01*
X008128Y002779D02*
Y002809D01*
X007986Y008636D02*
X008016D01*
X008001Y008621D02*
Y008651D01*
X007986Y00762D02*
X008016D01*
X008001Y007605D02*
Y007635D01*
X007986Y006604D02*
X008016D01*
X008001Y006589D02*
Y006619D01*
X007859Y00635D02*
X007889D01*
X007874Y006335D02*
Y006365D01*
X007859Y004826D02*
X007889D01*
X007874Y004811D02*
Y004841D01*
X007859Y004318D02*
X007889D01*
X007874Y004303D02*
Y004333D01*
X007986Y004064D02*
X008016D01*
X008001Y004049D02*
Y004079D01*
X007859Y00381D02*
X007889D01*
X007874Y003795D02*
Y003825D01*
X007859Y003302D02*
X007889D01*
X007874Y003287D02*
Y003317D01*
X007986Y003048D02*
X008016D01*
X008001Y003033D02*
Y003063D01*
X007859Y002794D02*
X007889D01*
X007874Y002779D02*
Y002809D01*
X007605Y007366D02*
X007635D01*
X00762Y007351D02*
Y007381D01*
X007732Y007112D02*
X007762D01*
X007747Y007097D02*
Y007127D01*
X007605Y00635D02*
X007635D01*
X00762Y006335D02*
Y006365D01*
X007732Y00508D02*
X007762D01*
X007747Y005065D02*
Y005095D01*
X007605Y004826D02*
X007635D01*
X00762Y004811D02*
Y004841D01*
X007605Y004318D02*
X007635D01*
X00762Y004303D02*
Y004333D01*
X007732Y004064D02*
X007762D01*
X007747Y004049D02*
Y004079D01*
X007605Y00381D02*
X007635D01*
X00762Y003795D02*
Y003825D01*
X007605Y003302D02*
X007635D01*
X00762Y003287D02*
Y003317D01*
X007732Y003048D02*
X007762D01*
X007747Y003033D02*
Y003063D01*
X007605Y002794D02*
X007635D01*
X00762Y002779D02*
Y002809D01*
X007478Y004572D02*
X007508D01*
X007493Y004557D02*
Y004587D01*
X007351Y004318D02*
X007381D01*
X007366Y004303D02*
Y004333D01*
X007478Y004064D02*
X007508D01*
X007493Y004049D02*
Y004079D01*
X007351Y00381D02*
X007381D01*
X007366Y003795D02*
Y003825D01*
X007351Y003302D02*
X007381D01*
X007366Y003287D02*
Y003317D01*
X007478Y003048D02*
X007508D01*
X007493Y003033D02*
Y003063D01*
X007351Y002794D02*
X007381D01*
X007366Y002779D02*
Y002809D01*
X007097Y004826D02*
X007127D01*
X007112Y004811D02*
Y004841D01*
X007224Y004572D02*
X007254D01*
X007239Y004557D02*
Y004587D01*
X007097Y004318D02*
X007127D01*
X007112Y004303D02*
Y004333D01*
X007224Y004064D02*
X007254D01*
X007239Y004049D02*
Y004079D01*
X007097Y00381D02*
X007127D01*
X007112Y003795D02*
Y003825D01*
X007097Y003302D02*
X007127D01*
X007112Y003287D02*
Y003317D01*
X007224Y003048D02*
X007254D01*
X007239Y003033D02*
Y003063D01*
X007097Y002794D02*
X007127D01*
X007112Y002779D02*
Y002809D01*
X00697Y003048D02*
X007D01*
X006985Y003033D02*
Y003063D01*
X006843Y002794D02*
X006873D01*
X006858Y002779D02*
Y002809D01*
X006716Y003048D02*
X006746D01*
X006731Y003033D02*
Y003063D01*
X006589Y002794D02*
X006619D01*
X006604Y002779D02*
Y002809D01*
X006462Y003048D02*
X006492D01*
X006477Y003033D02*
Y003063D01*
X006335Y002794D02*
X006365D01*
X00635Y002779D02*
Y002809D01*
X006208Y003048D02*
X006238D01*
X006223Y003033D02*
Y003063D01*
X006081Y002794D02*
X006111D01*
X006096Y002779D02*
Y002809D01*
X005954Y003048D02*
X005984D01*
X005969Y003033D02*
Y003063D01*
X005827Y002794D02*
X005857D01*
X005842Y002779D02*
Y002809D01*
X0057Y003048D02*
X00573D01*
X005715Y003033D02*
Y003063D01*
X005573Y002794D02*
X005603D01*
X005588Y002779D02*
Y002809D01*
X005319Y009398D02*
X005349D01*
X005334Y009383D02*
Y009413D01*
X005446Y009144D02*
X005476D01*
X005461Y009129D02*
Y009159D01*
X005319Y00889D02*
X005349D01*
X005334Y008875D02*
Y008905D01*
X005446Y003048D02*
X005476D01*
X005461Y003033D02*
Y003063D01*
X005319Y002794D02*
X005349D01*
X005334Y002779D02*
Y002809D01*
X005065Y009398D02*
X005095D01*
X00508Y009383D02*
Y009413D01*
X005192Y009144D02*
X005222D01*
X005207Y009129D02*
Y009159D01*
X005065Y00889D02*
X005095D01*
X00508Y008875D02*
Y008905D01*
X005192Y003048D02*
X005222D01*
X005207Y003033D02*
Y003063D01*
X005065Y002794D02*
X005095D01*
X00508Y002779D02*
Y002809D01*
X004811Y009398D02*
X004841D01*
X004826Y009383D02*
Y009413D01*
X004938Y009144D02*
X004968D01*
X004953Y009129D02*
Y009159D01*
X004811Y00889D02*
X004841D01*
X004826Y008875D02*
Y008905D01*
X004938Y003048D02*
X004968D01*
X004953Y003033D02*
Y003063D01*
X004811Y002794D02*
X004841D01*
X004826Y002779D02*
Y002809D01*
X004557Y009398D02*
X004587D01*
X004572Y009383D02*
Y009413D01*
X004684Y009144D02*
X004714D01*
X004699Y009129D02*
Y009159D01*
X004557Y00889D02*
X004587D01*
X004572Y008875D02*
Y008905D01*
X004684Y003048D02*
X004714D01*
X004699Y003033D02*
Y003063D01*
X004557Y002794D02*
X004587D01*
X004572Y002779D02*
Y002809D01*
X004303Y009398D02*
X004333D01*
X004318Y009383D02*
Y009413D01*
X00443Y009144D02*
X00446D01*
X004445Y009129D02*
Y009159D01*
X004303Y00889D02*
X004333D01*
X004318Y008875D02*
Y008905D01*
X00443Y003048D02*
X00446D01*
X004445Y003033D02*
Y003063D01*
X00760964Y00859518D02*
X00763964D01*
X00762464Y00858018D02*
Y00861018D01*
X00730379Y00840976D02*
X00733379D01*
X00731879Y00839476D02*
Y00842476D01*
X0092749Y008405D02*
X0093049D01*
X0092899Y00839D02*
Y00842D01*
X0111885Y008405D02*
X0112185D01*
X0112035Y00839D02*
Y00842D01*
X0091692Y00612884D02*
X0091992D01*
X0091842Y00611384D02*
Y00614384D01*
X0118722Y0056896D02*
X0119022D01*
X0118872Y0056746D02*
Y0057046D01*
X011923Y005588D02*
X011953D01*
X011938Y005573D02*
Y005603D01*
X0118722Y0054864D02*
X0119022D01*
X0118872Y0054714D02*
Y0055014D01*
X012685Y0054864D02*
X012715D01*
X0127Y0054714D02*
Y0055014D01*
X0125834Y0054864D02*
X0126134D01*
X0125984Y0054714D02*
Y0055014D01*
X0122786Y0054864D02*
X0123086D01*
X0122936Y0054714D02*
Y0055014D01*
X0110086Y0053848D02*
X0110386D01*
X0110236Y0053698D02*
Y0053998D01*
X0108562Y0054864D02*
X0108862D01*
X0108712Y0054714D02*
Y0055014D01*
X0108054Y005588D02*
X0108354D01*
X0108204Y005573D02*
Y005603D01*
X010653Y0054864D02*
X010683D01*
X010668Y0054714D02*
Y0055014D01*
X0105514Y0054864D02*
X0105814D01*
X0105664Y0054714D02*
Y0055014D01*
X0104498Y0054864D02*
X0104798D01*
X0104648Y0054714D02*
Y0055014D01*
X0100434Y005588D02*
X0100734D01*
X0100584Y005573D02*
Y005603D01*
X0100942Y0054864D02*
X0101242D01*
X0101092Y0054714D02*
Y0055014D01*
X0099418Y005588D02*
X0099718D01*
X0099568Y005573D02*
Y005603D01*
X009891Y0054864D02*
X009921D01*
X009906Y0054714D02*
Y0055014D01*
X0097386Y0053848D02*
X0097686D01*
X0097536Y0053698D02*
Y0053998D01*
X0089258Y0054864D02*
X0089558D01*
X0089408Y0054714D02*
Y0055014D01*
X008875Y005588D02*
X008905D01*
X00889Y005573D02*
Y005603D01*
X0088242Y0054864D02*
X0088542D01*
X0088392Y0054714D02*
Y0055014D01*
X0087226Y0054864D02*
X0087526D01*
X0087376Y0054714D02*
Y0055014D01*
X0082146Y0054864D02*
X0082446D01*
X0082296Y0054714D02*
Y0055014D01*
X008113Y0056896D02*
X008143D01*
X008128Y0056746D02*
Y0057046D01*
X0081638Y005588D02*
X0081938D01*
X0081788Y005573D02*
Y005603D01*
X008113Y0054864D02*
X008143D01*
X008128Y0054714D02*
Y0055014D01*
X0080114Y0056896D02*
X0080414D01*
X0080264Y0056746D02*
Y0057046D01*
X0080622Y005588D02*
X0080922D01*
X0080772Y005573D02*
Y005603D01*
X0080114Y0054864D02*
X0080414D01*
X0080264Y0054714D02*
Y0055014D01*
X0080622Y0053848D02*
X0080922D01*
X0080772Y0053698D02*
Y0053998D01*
X0079098Y0054864D02*
X0079398D01*
X0079248Y0054714D02*
Y0055014D01*
X0079606Y0053848D02*
X0079906D01*
X0079756Y0053698D02*
Y0053998D01*
X0079098Y0052832D02*
X0079398D01*
X0079248Y0052682D02*
Y0052982D01*
X0079606Y0051816D02*
X0079906D01*
X0079756Y0051666D02*
Y0051966D01*
X007859Y0053848D02*
X007889D01*
X007874Y0053698D02*
Y0053998D01*
X0078082Y0052832D02*
X0078382D01*
X0078232Y0052682D02*
Y0052982D01*
X0077574Y0053848D02*
X0077874D01*
X0077724Y0053698D02*
Y0053998D01*
X006843Y0058928D02*
X006873D01*
X006858Y0058778D02*
Y0059078D01*
X0067922Y0057912D02*
X0068222D01*
X0068072Y0057762D02*
Y0058062D01*
X006843Y0056896D02*
X006873D01*
X006858Y0056746D02*
Y0057046D01*
X0067922Y005588D02*
X0068222D01*
X0068072Y005573D02*
Y005603D01*
X006843Y0054864D02*
X006873D01*
X006858Y0054714D02*
Y0055014D01*
X0066906Y0059944D02*
X0067206D01*
X0067056Y0059794D02*
Y0060094D01*
X0067414Y0058928D02*
X0067714D01*
X0067564Y0058778D02*
Y0059078D01*
X0066906Y0057912D02*
X0067206D01*
X0067056Y0057762D02*
Y0058062D01*
X0067414Y0056896D02*
X0067714D01*
X0067564Y0056746D02*
Y0057046D01*
X0066906Y005588D02*
X0067206D01*
X0067056Y005573D02*
Y005603D01*
X0067414Y0054864D02*
X0067714D01*
X0067564Y0054714D02*
Y0055014D01*
X0066398Y006096D02*
X0066698D01*
X0066548Y006081D02*
Y006111D01*
X006589Y0059944D02*
X006619D01*
X006604Y0059794D02*
Y0060094D01*
X0066398Y0058928D02*
X0066698D01*
X0066548Y0058778D02*
Y0059078D01*
X006589Y0057912D02*
X006619D01*
X006604Y0057762D02*
Y0058062D01*
X0066398Y0056896D02*
X0066698D01*
X0066548Y0056746D02*
Y0057046D01*
X006589Y005588D02*
X006619D01*
X006604Y005573D02*
Y005603D01*
X0062842Y0049784D02*
X0063142D01*
X0062992Y0049634D02*
Y0049934D01*
X0062334Y0052832D02*
X0062634D01*
X0062484Y0052682D02*
Y0052982D01*
X0061826Y0051816D02*
X0062126D01*
X0061976Y0051666D02*
Y0051966D01*
X0062334Y00508D02*
X0062634D01*
X0062484Y005065D02*
Y005095D01*
X0061826Y0049784D02*
X0062126D01*
X0061976Y0049634D02*
Y0049934D01*
X0061318Y0052832D02*
X0061618D01*
X0061468Y0052682D02*
Y0052982D01*
X006081Y0051816D02*
X006111D01*
X006096Y0051666D02*
Y0051966D01*
X0061318Y00508D02*
X0061618D01*
X0061468Y005065D02*
Y005095D01*
X006081Y0049784D02*
X006111D01*
X006096Y0049634D02*
Y0049934D01*
X0060302Y0052832D02*
X0060602D01*
X0060452Y0052682D02*
Y0052982D01*
X0059794Y0051816D02*
X0060094D01*
X0059944Y0051666D02*
Y0051966D01*
X0060302Y00508D02*
X0060602D01*
X0060452Y005065D02*
Y005095D01*
X0059794Y0049784D02*
X0060094D01*
X0059944Y0049634D02*
Y0049934D01*
X0059286Y0052832D02*
X0059586D01*
X0059436Y0052682D02*
Y0052982D01*
X0058778Y0051816D02*
X0059078D01*
X0058928Y0051666D02*
Y0051966D01*
X0059286Y00508D02*
X0059586D01*
X0059436Y005065D02*
Y005095D01*
X0058778Y0049784D02*
X0059078D01*
X0058928Y0049634D02*
Y0049934D01*
X005827Y0052832D02*
X005857D01*
X005842Y0052682D02*
Y0052982D01*
X0057762Y0051816D02*
X0058062D01*
X0057912Y0051666D02*
Y0051966D01*
X005827Y00508D02*
X005857D01*
X005842Y005065D02*
Y005095D01*
X0057254Y0052832D02*
X0057554D01*
X0057404Y0052682D02*
Y0052982D01*
X0056746Y0051816D02*
X0057046D01*
X0056896Y0051666D02*
Y0051966D01*
X0057254Y00508D02*
X0057554D01*
X0057404Y005065D02*
Y005095D01*
X005573Y0053848D02*
X005603D01*
X005588Y0053698D02*
Y0053998D01*
X0056238Y0052832D02*
X0056538D01*
X0056388Y0052682D02*
Y0052982D01*
X0116182Y008128D02*
X0116482D01*
X0116332Y008113D02*
Y008143D01*
X0116182Y0077216D02*
X0116482D01*
X0116332Y0077066D02*
Y0077366D01*
X011415Y008128D02*
X011445D01*
X01143Y008113D02*
Y008143D01*
X0113642Y0080264D02*
X0113942D01*
X0113792Y0080114D02*
Y0080414D01*
X0113642Y0078232D02*
X0113942D01*
X0113792Y0078082D02*
Y0078382D01*
X011415Y0077216D02*
X011445D01*
X01143Y0077066D02*
Y0077366D01*
X0113642Y00762D02*
X0113942D01*
X0113792Y007605D02*
Y007635D01*
X011415Y0075184D02*
X011445D01*
X01143Y0075034D02*
Y0075334D01*
X0113642Y0070104D02*
X0113942D01*
X0113792Y0069954D02*
Y0070254D01*
X0113134Y008128D02*
X0113434D01*
X0113284Y008113D02*
Y008143D01*
X0113134Y0079248D02*
X0113434D01*
X0113284Y0079098D02*
Y0079398D01*
X0113134Y0077216D02*
X0113434D01*
X0113284Y0077066D02*
Y0077366D01*
X0096878Y008128D02*
X0097178D01*
X0097028Y008113D02*
Y008143D01*
X0096878Y0077216D02*
X0097178D01*
X0097028Y0077066D02*
Y0077366D01*
X0094846Y008128D02*
X0095146D01*
X0094996Y008113D02*
Y008143D01*
X0094338Y0080264D02*
X0094638D01*
X0094488Y0080114D02*
Y0080414D01*
X0094338Y0078232D02*
X0094638D01*
X0094488Y0078082D02*
Y0078382D01*
X0094846Y0077216D02*
X0095146D01*
X0094996Y0077066D02*
Y0077366D01*
X0094338Y00762D02*
X0094638D01*
X0094488Y007605D02*
Y007635D01*
X0094846Y0075184D02*
X0095146D01*
X0094996Y0075034D02*
Y0075334D01*
X0094338Y0070104D02*
X0094638D01*
X0094488Y0069954D02*
Y0070254D01*
X009383Y008128D02*
X009413D01*
X009398Y008113D02*
Y008143D01*
X009383Y0079248D02*
X009413D01*
X009398Y0079098D02*
Y0079398D01*
X009383Y0077216D02*
X009413D01*
X009398Y0077066D02*
Y0077366D01*
X0077574Y008128D02*
X0077874D01*
X0077724Y008113D02*
Y008143D01*
X0076558Y008128D02*
X0076858D01*
X0076708Y008113D02*
Y008143D01*
X0076558Y0077216D02*
X0076858D01*
X0076708Y0077066D02*
Y0077366D01*
X007605Y00762D02*
X007635D01*
X00762Y007605D02*
Y007635D01*
X0075542Y008128D02*
X0075842D01*
X0075692Y008113D02*
Y008143D01*
X0075034Y0080264D02*
X0075334D01*
X0075184Y0080114D02*
Y0080414D01*
X0075034Y0078232D02*
X0075334D01*
X0075184Y0078082D02*
Y0078382D01*
X0075542Y0077216D02*
X0075842D01*
X0075692Y0077066D02*
Y0077366D01*
X0075034Y00762D02*
X0075334D01*
X0075184Y007605D02*
Y007635D01*
X0075034Y0070104D02*
X0075334D01*
X0075184Y0069954D02*
Y0070254D01*
X0074526Y008128D02*
X0074826D01*
X0074676Y008113D02*
Y008143D01*
X0074018Y0080264D02*
X0074318D01*
X0074168Y0080114D02*
Y0080414D01*
X0074526Y0079248D02*
X0074826D01*
X0074676Y0079098D02*
Y0079398D01*
X0074018Y0078232D02*
X0074318D01*
X0074168Y0078082D02*
Y0078382D01*
X0074526Y0077216D02*
X0074826D01*
X0074676Y0077066D02*
Y0077366D01*
X0074018Y00762D02*
X0074318D01*
X0074168Y007605D02*
Y007635D01*
X0074018Y0070104D02*
X0074318D01*
X0074168Y0069954D02*
Y0070254D01*
X0073002Y0070104D02*
X0073302D01*
X0073152Y0069954D02*
Y0070254D01*
X012431Y009398D02*
X012461D01*
X012446Y009383D02*
Y009413D01*
X012558Y009144D02*
X012588D01*
X012573Y009129D02*
Y009159D01*
X012431Y00889D02*
X012461D01*
X012446Y008875D02*
Y008905D01*
X012558Y008636D02*
X012588D01*
X012573Y008621D02*
Y008651D01*
X012431Y008382D02*
X012461D01*
X012446Y008367D02*
Y008397D01*
X012558Y008128D02*
X012588D01*
X012573Y008113D02*
Y008143D01*
X012431Y007874D02*
X012461D01*
X012446Y007859D02*
Y007889D01*
X012431Y007366D02*
X012461D01*
X012446Y007351D02*
Y007381D01*
X012558Y007112D02*
X012588D01*
X012573Y007097D02*
Y007127D01*
X012558Y006604D02*
X012588D01*
X012573Y006589D02*
Y006619D01*
X012177Y009398D02*
X012207D01*
X012192Y009383D02*
Y009413D01*
X012304Y009144D02*
X012334D01*
X012319Y009129D02*
Y009159D01*
X012177Y00889D02*
X012207D01*
X012192Y008875D02*
Y008905D01*
X012304Y008636D02*
X012334D01*
X012319Y008621D02*
Y008651D01*
X012177Y008382D02*
X012207D01*
X012192Y008367D02*
Y008397D01*
X012304Y008128D02*
X012334D01*
X012319Y008113D02*
Y008143D01*
X012177Y007874D02*
X012207D01*
X012192Y007859D02*
Y007889D01*
X012304Y00762D02*
X012334D01*
X012319Y007605D02*
Y007635D01*
X012177Y007366D02*
X012207D01*
X012192Y007351D02*
Y007381D01*
X012304Y007112D02*
X012334D01*
X012319Y007097D02*
Y007127D01*
X012177Y006858D02*
X012207D01*
X012192Y006843D02*
Y006873D01*
X012304Y006604D02*
X012334D01*
X012319Y006589D02*
Y006619D01*
X011923Y009398D02*
X011953D01*
X011938Y009383D02*
Y009413D01*
X01205Y009144D02*
X01208D01*
X012065Y009129D02*
Y009159D01*
X01205Y00762D02*
X01208D01*
X012065Y007605D02*
Y007635D01*
X011669Y009398D02*
X011699D01*
X011684Y009383D02*
Y009413D01*
X011796Y009144D02*
X011826D01*
X011811Y009129D02*
Y009159D01*
X011415Y009398D02*
X011445D01*
X01143Y009383D02*
Y009413D01*
X011542Y009144D02*
X011572D01*
X011557Y009129D02*
Y009159D01*
X011161Y009398D02*
X011191D01*
X011176Y009383D02*
Y009413D01*
X011288Y009144D02*
X011318D01*
X011303Y009129D02*
Y009159D01*
X010907Y009398D02*
X010937D01*
X010922Y009383D02*
Y009413D01*
X011034Y009144D02*
X011064D01*
X011049Y009129D02*
Y009159D01*
X010653Y009398D02*
X010683D01*
X010668Y009383D02*
Y009413D01*
X01078Y009144D02*
X01081D01*
X010795Y009129D02*
Y009159D01*
X010653Y00889D02*
X010683D01*
X010668Y008875D02*
Y008905D01*
X010399Y009398D02*
X010429D01*
X010414Y009383D02*
Y009413D01*
X010526Y009144D02*
X010556D01*
X010541Y009129D02*
Y009159D01*
X010399Y00889D02*
X010429D01*
X010414Y008875D02*
Y008905D01*
X010526Y008636D02*
X010556D01*
X010541Y008621D02*
Y008651D01*
X010399Y008382D02*
X010429D01*
X010414Y008367D02*
Y008397D01*
X010526Y008128D02*
X010556D01*
X010541Y008113D02*
Y008143D01*
X010399Y007874D02*
X010429D01*
X010414Y007859D02*
Y007889D01*
X010399Y007366D02*
X010429D01*
X010414Y007351D02*
Y007381D01*
X010526Y007112D02*
X010556D01*
X010541Y007097D02*
Y007127D01*
X010526Y006604D02*
X010556D01*
X010541Y006589D02*
Y006619D01*
X010145Y009398D02*
X010175D01*
X01016Y009383D02*
Y009413D01*
X010272Y009144D02*
X010302D01*
X010287Y009129D02*
Y009159D01*
X010145Y00889D02*
X010175D01*
X01016Y008875D02*
Y008905D01*
X010272Y008636D02*
X010302D01*
X010287Y008621D02*
Y008651D01*
X010272Y008128D02*
X010302D01*
X010287Y008113D02*
Y008143D01*
X010272Y00762D02*
X010302D01*
X010287Y007605D02*
Y007635D01*
X010272Y007112D02*
X010302D01*
X010287Y007097D02*
Y007127D01*
X010272Y006604D02*
X010302D01*
X010287Y006589D02*
Y006619D01*
X009891Y009398D02*
X009921D01*
X009906Y009383D02*
Y009413D01*
X010018Y009144D02*
X010048D01*
X010033Y009129D02*
Y009159D01*
X009637Y009398D02*
X009667D01*
X009652Y009383D02*
Y009413D01*
X009764Y009144D02*
X009794D01*
X009779Y009129D02*
Y009159D01*
X009383Y009398D02*
X009413D01*
X009398Y009383D02*
Y009413D01*
X00951Y009144D02*
X00954D01*
X009525Y009129D02*
Y009159D01*
X009129Y009398D02*
X009159D01*
X009144Y009383D02*
Y009413D01*
X009256Y009144D02*
X009286D01*
X009271Y009129D02*
Y009159D01*
X008875Y009398D02*
X008905D01*
X00889Y009383D02*
Y009413D01*
X009002Y009144D02*
X009032D01*
X009017Y009129D02*
Y009159D01*
X008875Y00889D02*
X008905D01*
X00889Y008875D02*
Y008905D01*
X008621Y009398D02*
X008651D01*
X008636Y009383D02*
Y009413D01*
X008748Y009144D02*
X008778D01*
X008763Y009129D02*
Y009159D01*
X008621Y00889D02*
X008651D01*
X008636Y008875D02*
Y008905D01*
X008621Y008382D02*
X008651D01*
X008636Y008367D02*
Y008397D01*
X008621Y007874D02*
X008651D01*
X008636Y007859D02*
Y007889D01*
X008748Y006604D02*
X008778D01*
X008763Y006589D02*
Y006619D01*
X008367Y009398D02*
X008397D01*
X008382Y009383D02*
Y009413D01*
X008494Y009144D02*
X008524D01*
X008509Y009129D02*
Y009159D01*
X008367Y00889D02*
X008397D01*
X008382Y008875D02*
Y008905D01*
X008494Y008636D02*
X008524D01*
X008509Y008621D02*
Y008651D01*
X008367Y008382D02*
X008397D01*
X008382Y008367D02*
Y008397D01*
X008494Y008128D02*
X008524D01*
X008509Y008113D02*
Y008143D01*
X008367Y007874D02*
X008397D01*
X008382Y007859D02*
Y007889D01*
X008367Y007366D02*
X008397D01*
X008382Y007351D02*
Y007381D01*
X008494Y007112D02*
X008524D01*
X008509Y007097D02*
Y007127D01*
X008367Y006858D02*
X008397D01*
X008382Y006843D02*
Y006873D01*
X008494Y006604D02*
X008524D01*
X008509Y006589D02*
Y006619D01*
X008367Y00635D02*
X008397D01*
X008382Y006335D02*
Y006365D01*
X008113Y009398D02*
X008143D01*
X008128Y009383D02*
Y009413D01*
X00824Y009144D02*
X00827D01*
X008255Y009129D02*
Y009159D01*
X008113Y00889D02*
X008143D01*
X008128Y008875D02*
Y008905D01*
X00824Y008636D02*
X00827D01*
X008255Y008621D02*
Y008651D01*
X00824Y008128D02*
X00827D01*
X008255Y008113D02*
Y008143D01*
X00824Y00762D02*
X00827D01*
X008255Y007605D02*
Y007635D01*
X00824Y007112D02*
X00827D01*
X008255Y007097D02*
Y007127D01*
X00824Y006604D02*
X00827D01*
X008255Y006589D02*
Y006619D01*
X007859Y009398D02*
X007889D01*
X007874Y009383D02*
Y009413D01*
X007986Y009144D02*
X008016D01*
X008001Y009129D02*
Y009159D01*
X007605Y009398D02*
X007635D01*
X00762Y009383D02*
Y009413D01*
X007732Y009144D02*
X007762D01*
X007747Y009129D02*
Y009159D01*
X007351Y009398D02*
X007381D01*
X007366Y009383D02*
Y009413D01*
X007478Y009144D02*
X007508D01*
X007493Y009129D02*
Y009159D01*
X007097Y009398D02*
X007127D01*
X007112Y009383D02*
Y009413D01*
X007224Y009144D02*
X007254D01*
X007239Y009129D02*
Y009159D01*
X006843Y009398D02*
X006873D01*
X006858Y009383D02*
Y009413D01*
X00697Y009144D02*
X007D01*
X006985Y009129D02*
Y009159D01*
X006589Y009398D02*
X006619D01*
X006604Y009383D02*
Y009413D01*
X006716Y009144D02*
X006746D01*
X006731Y009129D02*
Y009159D01*
X006589Y00889D02*
X006619D01*
X006604Y008875D02*
Y008905D01*
X006335Y009398D02*
X006365D01*
X00635Y009383D02*
Y009413D01*
X006462Y009144D02*
X006492D01*
X006477Y009129D02*
Y009159D01*
X006335Y00889D02*
X006365D01*
X00635Y008875D02*
Y008905D01*
X006462Y008636D02*
X006492D01*
X006477Y008621D02*
Y008651D01*
X006335Y008382D02*
X006365D01*
X00635Y008367D02*
Y008397D01*
X006081Y009398D02*
X006111D01*
X006096Y009383D02*
Y009413D01*
X006208Y009144D02*
X006238D01*
X006223Y009129D02*
Y009159D01*
X006081Y00889D02*
X006111D01*
X006096Y008875D02*
Y008905D01*
X006208Y008636D02*
X006238D01*
X006223Y008621D02*
Y008651D01*
X006081Y008382D02*
X006111D01*
X006096Y008367D02*
Y008397D01*
X005827Y009398D02*
X005857D01*
X005842Y009383D02*
Y009413D01*
X005954Y009144D02*
X005984D01*
X005969Y009129D02*
Y009159D01*
X005827Y00889D02*
X005857D01*
X005842Y008875D02*
Y008905D01*
X005954Y008636D02*
X005984D01*
X005969Y008621D02*
Y008651D01*
X005827Y008382D02*
X005857D01*
X005842Y008367D02*
Y008397D01*
X0057Y009144D02*
X00573D01*
X005715Y009129D02*
Y009159D01*
X005573Y00889D02*
X005603D01*
X005588Y008875D02*
Y008905D01*
X0057Y008636D02*
X00573D01*
X005715Y008621D02*
Y008651D01*
X005573Y008382D02*
X005603D01*
X005588Y008367D02*
Y008397D01*
X01150346Y0085901D02*
X01153346D01*
X01151846Y0085751D02*
Y0086051D01*
X0112139Y00559798D02*
X0112439D01*
X0112289Y00558298D02*
Y00561298D01*
X0069848Y00559798D02*
X0070148D01*
X0069998Y00558298D02*
Y00561298D01*
X00956544Y00859518D02*
X00959544D01*
X00958044Y00858018D02*
Y00861018D01*
M02*
