G04*
G04 #@! TF.GenerationSoftware,Altium Limited,Altium Designer,24.1.2 (44)*
G04*
G04 Layer_Color=8388736*
%FSTAX44Y44*%
%MOMM*%
G71*
G04*
G04 #@! TF.SameCoordinates,12363CD6-4FB3-4025-AA91-2C02E6BC70D7*
G04*
G04*
G04 #@! TF.FilePolarity,Negative*
G04*
G01*
G75*
%ADD30O,1.3500X0.7500*%
G04:AMPARAMS|DCode=31|XSize=1.35mm|YSize=0.75mm|CornerRadius=0.15mm|HoleSize=0mm|Usage=FLASHONLY|Rotation=0.000|XOffset=0mm|YOffset=0mm|HoleType=Round|Shape=RoundedRectangle|*
%AMROUNDEDRECTD31*
21,1,1.3500,0.4500,0,0,0.0*
21,1,1.0500,0.7500,0,0,0.0*
1,1,0.3000,0.5250,-0.2250*
1,1,0.3000,-0.5250,-0.2250*
1,1,0.3000,-0.5250,0.2250*
1,1,0.3000,0.5250,0.2250*
%
%ADD31ROUNDEDRECTD31*%
G04:AMPARAMS|DCode=32|XSize=1.15mm|YSize=3.35mm|CornerRadius=0.325mm|HoleSize=0mm|Usage=FLASHONLY|Rotation=90.000|XOffset=0mm|YOffset=0mm|HoleType=Round|Shape=RoundedRectangle|*
%AMROUNDEDRECTD32*
21,1,1.1500,2.7000,0,0,90.0*
21,1,0.5000,3.3500,0,0,90.0*
1,1,0.6500,1.3500,0.2500*
1,1,0.6500,1.3500,-0.2500*
1,1,0.6500,-1.3500,-0.2500*
1,1,0.6500,-1.3500,0.2500*
%
%ADD32ROUNDEDRECTD32*%
G04:AMPARAMS|DCode=33|XSize=3.65mm|YSize=4.15mm|CornerRadius=0.95mm|HoleSize=0mm|Usage=FLASHONLY|Rotation=90.000|XOffset=0mm|YOffset=0mm|HoleType=Round|Shape=RoundedRectangle|*
%AMROUNDEDRECTD33*
21,1,3.6500,2.2500,0,0,90.0*
21,1,1.7500,4.1500,0,0,90.0*
1,1,1.9000,1.1250,0.8750*
1,1,1.9000,1.1250,-0.8750*
1,1,1.9000,-1.1250,-0.8750*
1,1,1.9000,-1.1250,0.8750*
%
%ADD33ROUNDEDRECTD33*%
G04:AMPARAMS|DCode=34|XSize=2.55mm|YSize=3.45mm|CornerRadius=0.675mm|HoleSize=0mm|Usage=FLASHONLY|Rotation=0.000|XOffset=0mm|YOffset=0mm|HoleType=Round|Shape=RoundedRectangle|*
%AMROUNDEDRECTD34*
21,1,2.5500,2.1000,0,0,0.0*
21,1,1.2000,3.4500,0,0,0.0*
1,1,1.3500,0.6000,-1.0500*
1,1,1.3500,-0.6000,-1.0500*
1,1,1.3500,-0.6000,1.0500*
1,1,1.3500,0.6000,1.0500*
%
%ADD34ROUNDEDRECTD34*%
G04:AMPARAMS|DCode=35|XSize=2.75mm|YSize=3.45mm|CornerRadius=0.725mm|HoleSize=0mm|Usage=FLASHONLY|Rotation=0.000|XOffset=0mm|YOffset=0mm|HoleType=Round|Shape=RoundedRectangle|*
%AMROUNDEDRECTD35*
21,1,2.7500,2.0000,0,0,0.0*
21,1,1.3000,3.4500,0,0,0.0*
1,1,1.4500,0.6500,-1.0000*
1,1,1.4500,-0.6500,-1.0000*
1,1,1.4500,-0.6500,1.0000*
1,1,1.4500,0.6500,1.0000*
%
%ADD35ROUNDEDRECTD35*%
G04:AMPARAMS|DCode=36|XSize=0.91mm|YSize=0.66mm|CornerRadius=0.2025mm|HoleSize=0mm|Usage=FLASHONLY|Rotation=180.000|XOffset=0mm|YOffset=0mm|HoleType=Round|Shape=RoundedRectangle|*
%AMROUNDEDRECTD36*
21,1,0.9100,0.2550,0,0,180.0*
21,1,0.5050,0.6600,0,0,180.0*
1,1,0.4050,-0.2525,0.1275*
1,1,0.4050,0.2525,0.1275*
1,1,0.4050,0.2525,-0.1275*
1,1,0.4050,-0.2525,-0.1275*
%
%ADD36ROUNDEDRECTD36*%
G04:AMPARAMS|DCode=37|XSize=0.7mm|YSize=0.97mm|CornerRadius=0.2125mm|HoleSize=0mm|Usage=FLASHONLY|Rotation=270.000|XOffset=0mm|YOffset=0mm|HoleType=Round|Shape=RoundedRectangle|*
%AMROUNDEDRECTD37*
21,1,0.7000,0.5450,0,0,270.0*
21,1,0.2750,0.9700,0,0,270.0*
1,1,0.4250,-0.2725,-0.1375*
1,1,0.4250,-0.2725,0.1375*
1,1,0.4250,0.2725,0.1375*
1,1,0.4250,0.2725,-0.1375*
%
%ADD37ROUNDEDRECTD37*%
G04:AMPARAMS|DCode=38|XSize=1.05mm|YSize=0.95mm|CornerRadius=0.175mm|HoleSize=0mm|Usage=FLASHONLY|Rotation=270.000|XOffset=0mm|YOffset=0mm|HoleType=Round|Shape=RoundedRectangle|*
%AMROUNDEDRECTD38*
21,1,1.0500,0.6000,0,0,270.0*
21,1,0.7000,0.9500,0,0,270.0*
1,1,0.3500,-0.3000,-0.3500*
1,1,0.3500,-0.3000,0.3500*
1,1,0.3500,0.3000,0.3500*
1,1,0.3500,0.3000,-0.3500*
%
%ADD38ROUNDEDRECTD38*%
G04:AMPARAMS|DCode=39|XSize=0.7mm|YSize=0.97mm|CornerRadius=0.2125mm|HoleSize=0mm|Usage=FLASHONLY|Rotation=0.000|XOffset=0mm|YOffset=0mm|HoleType=Round|Shape=RoundedRectangle|*
%AMROUNDEDRECTD39*
21,1,0.7000,0.5450,0,0,0.0*
21,1,0.2750,0.9700,0,0,0.0*
1,1,0.4250,0.1375,-0.2725*
1,1,0.4250,-0.1375,-0.2725*
1,1,0.4250,-0.1375,0.2725*
1,1,0.4250,0.1375,0.2725*
%
%ADD39ROUNDEDRECTD39*%
%ADD40R,0.9500X2.9500*%
%ADD41R,8.8500X8.1500*%
%ADD42O,1.5400X2.2400*%
G04:AMPARAMS|DCode=43|XSize=2.24mm|YSize=1.54mm|CornerRadius=0.2487mm|HoleSize=0mm|Usage=FLASHONLY|Rotation=270.000|XOffset=0mm|YOffset=0mm|HoleType=Round|Shape=RoundedRectangle|*
%AMROUNDEDRECTD43*
21,1,2.2400,1.0425,0,0,270.0*
21,1,1.7425,1.5400,0,0,270.0*
1,1,0.4975,-0.5213,-0.8713*
1,1,0.4975,-0.5213,0.8713*
1,1,0.4975,0.5213,0.8713*
1,1,0.4975,0.5213,-0.8713*
%
%ADD43ROUNDEDRECTD43*%
G04:AMPARAMS|DCode=44|XSize=1.05mm|YSize=0.95mm|CornerRadius=0.175mm|HoleSize=0mm|Usage=FLASHONLY|Rotation=0.000|XOffset=0mm|YOffset=0mm|HoleType=Round|Shape=RoundedRectangle|*
%AMROUNDEDRECTD44*
21,1,1.0500,0.6000,0,0,0.0*
21,1,0.7000,0.9500,0,0,0.0*
1,1,0.3500,0.3500,-0.3000*
1,1,0.3500,-0.3500,-0.3000*
1,1,0.3500,-0.3500,0.3000*
1,1,0.3500,0.3500,0.3000*
%
%ADD44ROUNDEDRECTD44*%
G04:AMPARAMS|DCode=45|XSize=1.55mm|YSize=1.95mm|CornerRadius=0.425mm|HoleSize=0mm|Usage=FLASHONLY|Rotation=0.000|XOffset=0mm|YOffset=0mm|HoleType=Round|Shape=RoundedRectangle|*
%AMROUNDEDRECTD45*
21,1,1.5500,1.1000,0,0,0.0*
21,1,0.7000,1.9500,0,0,0.0*
1,1,0.8500,0.3500,-0.5500*
1,1,0.8500,-0.3500,-0.5500*
1,1,0.8500,-0.3500,0.5500*
1,1,0.8500,0.3500,0.5500*
%
%ADD45ROUNDEDRECTD45*%
%ADD46O,1.5500X1.9500*%
%ADD47C,1.7500*%
%ADD48O,1.7500X1.3500*%
%ADD49O,1.7000X1.9000*%
G04:AMPARAMS|DCode=50|XSize=1.7mm|YSize=1.9mm|CornerRadius=0.5mm|HoleSize=0mm|Usage=FLASHONLY|Rotation=0.000|XOffset=0mm|YOffset=0mm|HoleType=Round|Shape=RoundedRectangle|*
%AMROUNDEDRECTD50*
21,1,1.7000,0.9000,0,0,0.0*
21,1,0.7000,1.9000,0,0,0.0*
1,1,1.0000,0.3500,-0.4500*
1,1,1.0000,-0.3500,-0.4500*
1,1,1.0000,-0.3500,0.4500*
1,1,1.0000,0.3500,0.4500*
%
%ADD50ROUNDEDRECTD50*%
%ADD51O,1.3500X2.4500*%
%ADD52C,6.0000*%
G04:AMPARAMS|DCode=53|XSize=1.35mm|YSize=1.75mm|CornerRadius=0.375mm|HoleSize=0mm|Usage=FLASHONLY|Rotation=270.000|XOffset=0mm|YOffset=0mm|HoleType=Round|Shape=RoundedRectangle|*
%AMROUNDEDRECTD53*
21,1,1.3500,1.0000,0,0,270.0*
21,1,0.6000,1.7500,0,0,270.0*
1,1,0.7500,-0.5000,-0.3000*
1,1,0.7500,-0.5000,0.3000*
1,1,0.7500,0.5000,0.3000*
1,1,0.7500,0.5000,-0.3000*
%
%ADD53ROUNDEDRECTD53*%
G36*
X011724Y007724D02*
X011251D01*
Y0078D01*
X011307D01*
Y007856D01*
X011251D01*
Y007932D01*
X011307D01*
Y007988D01*
X011251D01*
Y008064D01*
X011307D01*
Y00812D01*
X011251D01*
Y008196D01*
X011724D01*
Y007724D01*
D02*
G37*
G36*
X009794D02*
X009321D01*
Y0078D01*
X009377D01*
Y007856D01*
X009321D01*
Y007932D01*
X009377D01*
Y007988D01*
X009321D01*
Y008064D01*
X009377D01*
Y00812D01*
X009321D01*
Y008196D01*
X009794D01*
Y007724D01*
D02*
G37*
G36*
X007824D02*
X007351D01*
Y0078D01*
X007407D01*
Y007856D01*
X007351D01*
Y007932D01*
X007407D01*
Y007988D01*
X007351D01*
Y008064D01*
X007407D01*
Y00812D01*
X007351D01*
Y008196D01*
X007824D01*
Y007724D01*
D02*
G37*
G36*
X00656332Y00812D02*
X00649332D01*
Y00785D01*
X00654332D01*
Y00746D01*
X00555332D01*
Y00785D01*
X00560332D01*
Y00812D01*
X00553332D01*
Y00828D01*
X00656332D01*
Y00812D01*
D02*
G37*
G36*
X00651832Y00693D02*
X00641832D01*
Y00713D01*
X00639832D01*
Y00693D01*
X00629832D01*
Y00713D01*
X00627832D01*
Y00693D01*
X00617832D01*
Y00713D01*
X00615832D01*
Y00693D01*
X00605832D01*
Y00713D01*
X00603832D01*
Y00693D01*
X00593832D01*
Y00713D01*
X00591832D01*
Y00693D01*
X00581832D01*
Y00713D01*
X00579832D01*
Y00693D01*
X00569832D01*
Y00723D01*
X00651832D01*
Y00693D01*
D02*
G37*
G36*
X00639832Y00653D02*
X00557832D01*
Y00683D01*
X00567832D01*
Y00663D01*
X00569832D01*
Y00683D01*
X00579832D01*
Y00663D01*
X00581832D01*
Y00683D01*
X00591832D01*
Y00663D01*
X00593832D01*
Y00683D01*
X00603832D01*
Y00663D01*
X00605832D01*
Y00683D01*
X00615832D01*
Y00663D01*
X00617832D01*
Y00683D01*
X00627832D01*
Y00663D01*
X00629832D01*
Y00683D01*
X00639832D01*
Y00653D01*
D02*
G37*
G36*
X00654332Y00591D02*
X00649332D01*
Y00564D01*
X00656332D01*
Y00548D01*
X00553332D01*
Y00564D01*
X00560332D01*
Y00591D01*
X00555332D01*
Y0063D01*
X00654332D01*
Y00591D01*
D02*
G37*
D30*
X01165Y008595D02*
D03*
Y008405D02*
D03*
Y0085D02*
D03*
X01137Y008405D02*
D03*
Y0085D02*
D03*
X00971Y008595D02*
D03*
Y008405D02*
D03*
Y0085D02*
D03*
X00943Y008405D02*
D03*
Y0085D02*
D03*
X00745D02*
D03*
Y008405D02*
D03*
X00773Y0085D02*
D03*
Y008405D02*
D03*
Y008595D02*
D03*
D31*
X01137D02*
D03*
X00943D02*
D03*
X00745D02*
D03*
D32*
X00866Y00631D02*
D03*
Y00571D02*
D03*
X010585D02*
D03*
Y00631D02*
D03*
X012605Y00571D02*
D03*
Y00631D02*
D03*
D33*
X00768Y006685D02*
D03*
Y005735D02*
D03*
X01158D02*
D03*
Y006685D02*
D03*
X00965Y005735D02*
D03*
Y006685D02*
D03*
D34*
X00803Y00731D02*
D03*
X01193D02*
D03*
X01D02*
D03*
D35*
X00733D02*
D03*
X01123D02*
D03*
X0093D02*
D03*
D36*
X007954Y0081505D02*
D03*
Y0077695D02*
D03*
Y0078965D02*
D03*
Y0080235D02*
D03*
X009924D02*
D03*
Y0078965D02*
D03*
Y0077695D02*
D03*
Y0081505D02*
D03*
X011854D02*
D03*
Y0077695D02*
D03*
Y0078965D02*
D03*
Y0080235D02*
D03*
D37*
X00506686Y00875404D02*
D03*
Y00860904D02*
D03*
X011854Y0084425D02*
D03*
Y0082975D02*
D03*
X009924Y0084525D02*
D03*
Y0083075D02*
D03*
X007954Y0084525D02*
D03*
Y0083075D02*
D03*
D38*
X00505332Y0078635D02*
D03*
X00514832Y0076635D02*
D03*
X00524332Y0078635D02*
D03*
D39*
X00507582Y007995D02*
D03*
X0111225Y008595D02*
D03*
X0109775D02*
D03*
X00522082Y007995D02*
D03*
X00507582Y008125D02*
D03*
X00522082D02*
D03*
X00515582Y007105D02*
D03*
X00530082D02*
D03*
X00462032Y00836912D02*
D03*
X00476532D02*
D03*
X00530082Y006975D02*
D03*
X00515582D02*
D03*
X00489582D02*
D03*
X00504082D02*
D03*
X0092225Y00825D02*
D03*
X0090775D02*
D03*
X0092225Y008595D02*
D03*
X0090775D02*
D03*
X0092225Y008405D02*
D03*
X0090775D02*
D03*
X0111225Y008405D02*
D03*
X0109775D02*
D03*
X0111225Y00824D02*
D03*
X0109775D02*
D03*
X0111225Y00811D02*
D03*
X0109775D02*
D03*
X0072425Y008595D02*
D03*
X0070975D02*
D03*
X0072425Y008405D02*
D03*
X0070975D02*
D03*
X0072425Y00828D02*
D03*
X0070975D02*
D03*
X0072425Y00815D02*
D03*
X0070975D02*
D03*
X0090775Y00812D02*
D03*
X0092225D02*
D03*
D40*
X00610832Y007075D02*
D03*
X00562832Y00708D02*
D03*
X00598832Y006685D02*
D03*
X00646832Y00668D02*
D03*
D41*
X00604832Y00787D02*
D03*
Y00589D02*
D03*
D42*
X00476532Y007221D02*
D03*
X00451132D02*
D03*
Y008129D02*
D03*
D43*
X00476532D02*
D03*
D44*
X00532832Y007345D02*
D03*
X00512832Y00725D02*
D03*
Y00744D02*
D03*
D45*
X00866Y00749D02*
D03*
Y00681D02*
D03*
X012605D02*
D03*
X010585D02*
D03*
X012605Y00749D02*
D03*
X010585D02*
D03*
D46*
X00891D02*
D03*
Y00681D02*
D03*
X012855D02*
D03*
X010835D02*
D03*
X012855Y00749D02*
D03*
X010835D02*
D03*
D47*
X00474832Y005941D02*
D03*
Y006703D02*
D03*
Y006449D02*
D03*
Y006195D02*
D03*
D48*
X00519832Y005955D02*
D03*
Y006505D02*
D03*
D49*
X005Y004014D02*
D03*
Y004268D02*
D03*
X005254Y004014D02*
D03*
X004746D02*
D03*
Y004268D02*
D03*
D50*
X005254D02*
D03*
D51*
X006325Y004535D02*
D03*
X007675D02*
D03*
X012775D02*
D03*
X011425D02*
D03*
X011075D02*
D03*
X009725D02*
D03*
X009375D02*
D03*
X008025D02*
D03*
D52*
X00664Y005135D02*
D03*
X00736D02*
D03*
X01246D02*
D03*
X01174D02*
D03*
X01076D02*
D03*
X01004D02*
D03*
X00906D02*
D03*
X00834D02*
D03*
D53*
X00519832Y006705D02*
D03*
Y006155D02*
D03*
M02*
